<svg width="145" height="54" viewBox="0 0 145 54" fill="none" xmlns="http://www.w3.org/2000/svg">
<g clip-path="url(#clip0_4_177)">
<path d="M16.9555 24.0725C14.9265 27.5934 16.2164 32.9366 18.4601 36.1763C19.5801 37.7961 20.714 39.25 22.2671 39.25C22.2963 39.25 22.3257 39.2494 22.3558 39.2482C23.0854 39.2191 23.6127 38.9945 24.1226 38.7774C24.6949 38.5334 25.2869 38.2812 26.2154 38.2812C27.0988 38.2812 27.6625 38.5253 28.2077 38.7612C28.745 38.9936 29.2984 39.2341 30.1161 39.2187C31.8655 39.1862 32.9396 37.6173 33.8872 36.2332C34.8761 34.7881 35.3722 33.385 35.5395 32.8488L35.5463 32.8275C35.5782 32.7322 35.5332 32.6282 35.4418 32.5862C35.4393 32.5851 35.43 32.5812 35.4274 32.5801C35.1194 32.4541 32.417 31.2553 32.3886 27.9878C32.3623 25.3332 34.4159 23.9274 34.8277 23.6726L34.8469 23.6607C34.8915 23.632 34.9226 23.5864 34.9332 23.5343C34.9437 23.4823 34.9327 23.4282 34.9028 23.3844C33.4853 21.31 31.3127 20.9974 30.438 20.9598C30.3111 20.9471 30.1801 20.9407 30.0485 20.9407C29.0211 20.9407 28.037 21.3287 27.2463 21.6405C26.7005 21.8557 26.2291 22.0416 25.904 22.0416C25.5386 22.0416 25.0645 21.8534 24.5155 21.6356C23.7814 21.3442 22.9492 21.0141 22.0683 21.0141C22.0473 21.0141 22.0266 21.0143 22.0062 21.0147C19.958 21.0448 18.0225 22.2167 16.9555 24.0725Z" fill="white"/>
<path d="M30.4398 15.2502C29.1994 15.3007 27.7115 16.0642 26.8221 17.1059C26.0663 17.9814 25.328 19.4413 25.5225 20.9127C25.5347 21.0048 25.6096 21.0759 25.7022 21.083C25.786 21.0895 25.8714 21.0929 25.9566 21.0929C27.1694 21.0929 28.4777 20.422 29.3712 19.3416C30.3117 18.2007 30.7872 16.7367 30.6433 15.4252C30.632 15.3225 30.5416 15.2461 30.4398 15.2502Z" fill="white"/>
</g>
<path opacity="0.55" d="M50.326 19.87C49.838 19.87 49.406 19.814 49.03 19.702C48.654 19.59 48.338 19.438 48.082 19.246C47.826 19.046 47.622 18.818 47.47 18.562C47.326 18.306 47.242 18.03 47.218 17.734C47.21 17.662 47.23 17.606 47.278 17.566C47.334 17.526 47.398 17.506 47.47 17.506H48.07C48.142 17.506 48.206 17.522 48.262 17.554C48.326 17.586 48.374 17.654 48.406 17.758C48.502 18.078 48.71 18.342 49.03 18.55C49.35 18.75 49.778 18.85 50.314 18.85C50.69 18.85 51.03 18.794 51.334 18.682C51.638 18.562 51.882 18.394 52.066 18.178C52.25 17.954 52.342 17.686 52.342 17.374C52.342 16.902 52.17 16.538 51.826 16.282C51.49 16.018 51.03 15.886 50.446 15.886H49.582C49.502 15.886 49.438 15.862 49.39 15.814C49.342 15.758 49.318 15.69 49.318 15.61V15.19C49.318 15.102 49.342 15.034 49.39 14.986C49.438 14.93 49.502 14.902 49.582 14.902H50.398C50.894 14.902 51.294 14.794 51.598 14.578C51.91 14.362 52.066 14.018 52.066 13.546C52.066 13.282 51.986 13.054 51.826 12.862C51.674 12.67 51.47 12.522 51.214 12.418C50.958 12.306 50.67 12.25 50.35 12.25C49.862 12.25 49.454 12.338 49.126 12.514C48.798 12.69 48.594 12.974 48.514 13.366C48.49 13.454 48.454 13.518 48.406 13.558C48.358 13.59 48.298 13.606 48.226 13.606H47.578C47.506 13.606 47.442 13.582 47.386 13.534C47.338 13.486 47.318 13.426 47.326 13.354C47.35 13.05 47.434 12.77 47.578 12.514C47.722 12.25 47.918 12.022 48.166 11.83C48.422 11.638 48.734 11.49 49.102 11.386C49.47 11.282 49.89 11.23 50.362 11.23C51.01 11.23 51.546 11.338 51.97 11.554C52.394 11.77 52.714 12.05 52.93 12.394C53.146 12.73 53.254 13.094 53.254 13.486C53.254 13.726 53.222 13.962 53.158 14.194C53.102 14.426 53.002 14.638 52.858 14.83C52.722 15.022 52.534 15.19 52.294 15.334C52.582 15.47 52.814 15.646 52.99 15.862C53.174 16.07 53.31 16.306 53.398 16.57C53.494 16.826 53.542 17.102 53.542 17.398C53.542 17.886 53.41 18.314 53.146 18.682C52.89 19.05 52.522 19.342 52.042 19.558C51.562 19.766 50.99 19.87 50.326 19.87ZM56.8311 19.87C56.4311 19.87 56.0671 19.79 55.7391 19.63C55.4111 19.47 55.1471 19.254 54.9471 18.982C54.7471 18.71 54.6471 18.402 54.6471 18.058C54.6471 17.506 54.8711 17.066 55.3191 16.738C55.7671 16.41 56.3511 16.194 57.0711 16.09L58.8591 15.838V15.49C58.8591 15.106 58.7471 14.806 58.5231 14.59C58.3071 14.374 57.9511 14.266 57.4551 14.266C57.0951 14.266 56.8031 14.338 56.5791 14.482C56.3631 14.626 56.2111 14.81 56.1231 15.034C56.0751 15.154 55.9911 15.214 55.8711 15.214H55.3311C55.2431 15.214 55.1751 15.19 55.1271 15.142C55.0871 15.086 55.0671 15.022 55.0671 14.95C55.0671 14.83 55.1111 14.682 55.1991 14.506C55.2951 14.33 55.4391 14.158 55.6311 13.99C55.8231 13.822 56.0671 13.682 56.3631 13.57C56.6671 13.45 57.0351 13.39 57.4671 13.39C57.9471 13.39 58.3511 13.454 58.6791 13.582C59.0071 13.702 59.2631 13.866 59.4471 14.074C59.6391 14.282 59.7751 14.518 59.8551 14.782C59.9431 15.046 59.9871 15.314 59.9871 15.586V19.474C59.9871 19.554 59.9591 19.622 59.9031 19.678C59.8551 19.726 59.7911 19.75 59.7111 19.75H59.1591C59.0711 19.75 59.0031 19.726 58.9551 19.678C58.9071 19.622 58.8831 19.554 58.8831 19.474V18.958C58.7791 19.102 58.6391 19.246 58.4631 19.39C58.2871 19.526 58.0671 19.642 57.8031 19.738C57.5391 19.826 57.2151 19.87 56.8311 19.87ZM57.0831 18.97C57.4111 18.97 57.7111 18.902 57.9831 18.766C58.2551 18.622 58.4671 18.402 58.6191 18.106C58.7791 17.81 58.8591 17.438 58.8591 16.99V16.654L57.4671 16.858C56.8991 16.938 56.4711 17.074 56.1831 17.266C55.8951 17.45 55.7511 17.686 55.7511 17.974C55.7511 18.198 55.8151 18.386 55.9431 18.538C56.0791 18.682 56.2471 18.79 56.4471 18.862C56.6551 18.934 56.8671 18.97 57.0831 18.97ZM61.9882 19.75C61.9082 19.75 61.8402 19.726 61.7842 19.678C61.7362 19.622 61.7122 19.554 61.7122 19.474V13.786C61.7122 13.706 61.7362 13.642 61.7842 13.594C61.8402 13.538 61.9082 13.51 61.9882 13.51H65.5762C65.6562 13.51 65.7202 13.538 65.7682 13.594C65.8162 13.642 65.8402 13.706 65.8402 13.786V14.194C65.8402 14.274 65.8162 14.342 65.7682 14.398C65.7202 14.446 65.6562 14.47 65.5762 14.47H62.8282V19.474C62.8282 19.554 62.8042 19.622 62.7562 19.678C62.7082 19.726 62.6442 19.75 62.5642 19.75H61.9882ZM67.1565 22.03C67.0765 22.03 67.0085 22.002 66.9525 21.946C66.9045 21.898 66.8805 21.834 66.8805 21.754V13.786C66.8805 13.706 66.9045 13.642 66.9525 13.594C67.0085 13.538 67.0765 13.51 67.1565 13.51H67.7085C67.7885 13.51 67.8525 13.538 67.9005 13.594C67.9565 13.642 67.9845 13.706 67.9845 13.786V14.314C68.1765 14.05 68.4325 13.83 68.7525 13.654C69.0725 13.478 69.4725 13.39 69.9525 13.39C70.4005 13.39 70.7805 13.466 71.0925 13.618C71.4125 13.77 71.6725 13.978 71.8725 14.242C72.0805 14.506 72.2365 14.806 72.3405 15.142C72.4445 15.478 72.5005 15.838 72.5085 16.222C72.5165 16.35 72.5205 16.486 72.5205 16.63C72.5205 16.774 72.5165 16.91 72.5085 17.038C72.5005 17.414 72.4445 17.774 72.3405 18.118C72.2365 18.454 72.0805 18.754 71.8725 19.018C71.6725 19.274 71.4125 19.482 71.0925 19.642C70.7805 19.794 70.4005 19.87 69.9525 19.87C69.4885 19.87 69.0965 19.786 68.7765 19.618C68.4645 19.442 68.2085 19.226 68.0085 18.97V21.754C68.0085 21.834 67.9845 21.898 67.9365 21.946C67.8885 22.002 67.8205 22.03 67.7325 22.03H67.1565ZM69.7005 18.898C70.1165 18.898 70.4405 18.81 70.6725 18.634C70.9125 18.45 71.0845 18.214 71.1885 17.926C71.2925 17.63 71.3525 17.314 71.3685 16.978C71.3765 16.746 71.3765 16.514 71.3685 16.282C71.3525 15.946 71.2925 15.634 71.1885 15.346C71.0845 15.05 70.9125 14.814 70.6725 14.638C70.4405 14.454 70.1165 14.362 69.7005 14.362C69.3085 14.362 68.9885 14.454 68.7405 14.638C68.5005 14.822 68.3205 15.058 68.2005 15.346C68.0885 15.626 68.0245 15.914 68.0085 16.21C68.0005 16.338 67.9965 16.49 67.9965 16.666C67.9965 16.842 68.0005 16.998 68.0085 17.134C68.0165 17.414 68.0805 17.69 68.2005 17.962C68.3285 18.234 68.5165 18.458 68.7645 18.634C69.0125 18.81 69.3245 18.898 69.7005 18.898ZM74.3049 22.03C74.2169 22.03 74.1489 22.002 74.1009 21.946C74.0529 21.898 74.0289 21.834 74.0289 21.754V21.346C74.0289 21.266 74.0529 21.198 74.1009 21.142C74.1489 21.094 74.2169 21.07 74.3049 21.07H74.6169C74.8009 21.07 74.9489 21.034 75.0609 20.962C75.1729 20.89 75.2729 20.766 75.3609 20.59C75.4569 20.422 75.5689 20.19 75.6969 19.894L78.3009 13.714C78.3249 13.65 78.3569 13.602 78.3969 13.57C78.4449 13.53 78.5129 13.51 78.6009 13.51H79.1289C79.2009 13.51 79.2609 13.534 79.3089 13.582C79.3569 13.63 79.3809 13.686 79.3809 13.75C79.3809 13.782 79.3769 13.814 79.3689 13.846C79.3609 13.87 79.3449 13.91 79.3209 13.966L77.0409 19.366C76.9209 19.654 76.7889 19.954 76.6449 20.266C76.5089 20.578 76.3529 20.866 76.1769 21.13C76.0089 21.402 75.8089 21.618 75.5769 21.778C75.3449 21.946 75.0729 22.03 74.7609 22.03H74.3049ZM75.9729 19.57L73.5489 13.966C73.5089 13.87 73.4889 13.802 73.4889 13.762C73.4969 13.69 73.5249 13.63 73.5729 13.582C73.6209 13.534 73.6769 13.51 73.7409 13.51H74.3049C74.3929 13.51 74.4569 13.53 74.4969 13.57C74.5449 13.61 74.5809 13.658 74.6049 13.714L76.5969 18.478L75.9729 19.57ZM82.7631 19.87C82.2911 19.87 81.8911 19.814 81.5631 19.702C81.2431 19.582 80.9831 19.434 80.7831 19.258C80.5911 19.074 80.4511 18.886 80.3631 18.694C80.2751 18.494 80.2271 18.31 80.2191 18.142C80.2191 18.07 80.2431 18.014 80.2911 17.974C80.3391 17.926 80.3951 17.902 80.4591 17.902H81.0231C81.0951 17.902 81.1551 17.922 81.2031 17.962C81.2511 17.994 81.2871 18.054 81.3111 18.142C81.4071 18.446 81.5911 18.658 81.8631 18.778C82.1351 18.898 82.4671 18.958 82.8591 18.958C83.1151 18.958 83.3511 18.926 83.5671 18.862C83.7831 18.79 83.9511 18.678 84.0711 18.526C84.1991 18.374 84.2631 18.186 84.2631 17.962C84.2631 17.634 84.1671 17.386 83.9751 17.218C83.7911 17.05 83.5031 16.966 83.1111 16.966H82.4511C82.3711 16.966 82.3071 16.942 82.2591 16.894C82.2111 16.846 82.1871 16.782 82.1871 16.702V16.378C82.1871 16.306 82.2111 16.246 82.2591 16.198C82.3071 16.142 82.3711 16.114 82.4511 16.114H83.0391C83.3671 16.114 83.6191 16.05 83.7951 15.922C83.9711 15.794 84.0591 15.59 84.0591 15.31C84.0591 15.142 84.0191 14.982 83.9391 14.83C83.8591 14.678 83.7231 14.554 83.5311 14.458C83.3471 14.354 83.0911 14.302 82.7631 14.302C82.2991 14.302 81.9711 14.382 81.7791 14.542C81.5951 14.694 81.4631 14.922 81.3831 15.226C81.3511 15.314 81.3111 15.374 81.2631 15.406C81.2231 15.438 81.1631 15.454 81.0831 15.454H80.5431C80.4711 15.454 80.4111 15.434 80.3631 15.394C80.3151 15.354 80.2911 15.298 80.2911 15.226C80.2991 14.986 80.3511 14.758 80.4471 14.542C80.5511 14.326 80.7031 14.13 80.9031 13.954C81.1111 13.778 81.3671 13.642 81.6711 13.546C81.9831 13.442 82.3471 13.39 82.7631 13.39C83.3631 13.39 83.8351 13.482 84.1791 13.666C84.5311 13.85 84.7791 14.078 84.9231 14.35C85.0751 14.614 85.1511 14.878 85.1511 15.142C85.1511 15.454 85.0991 15.714 84.9951 15.922C84.8991 16.13 84.7071 16.306 84.4191 16.45C84.7791 16.586 85.0271 16.79 85.1631 17.062C85.2991 17.334 85.3711 17.65 85.3791 18.01C85.3871 18.426 85.2751 18.77 85.0431 19.042C84.8191 19.314 84.5111 19.522 84.1191 19.666C83.7271 19.802 83.2751 19.87 82.7631 19.87ZM86.9958 19.75C86.9238 19.75 86.8598 19.726 86.8038 19.678C86.7558 19.622 86.7318 19.562 86.7318 19.498V13.786C86.7318 13.706 86.7558 13.642 86.8038 13.594C86.8598 13.538 86.9278 13.51 87.0078 13.51H87.5838C87.6638 13.51 87.7278 13.538 87.7758 13.594C87.8238 13.642 87.8478 13.706 87.8478 13.786V18.874L87.5358 18.55L91.1718 13.69C91.2118 13.642 91.2558 13.602 91.3038 13.57C91.3518 13.53 91.4118 13.51 91.4838 13.51H92.0358C92.0998 13.51 92.1558 13.534 92.2038 13.582C92.2598 13.63 92.2878 13.686 92.2878 13.75V19.474C92.2878 19.554 92.2598 19.622 92.2038 19.678C92.1558 19.726 92.0918 19.75 92.0117 19.75H91.4478C91.3598 19.75 91.2918 19.726 91.2438 19.678C91.1958 19.622 91.1718 19.554 91.1718 19.474V14.686L91.5078 14.674L87.8478 19.57C87.8158 19.61 87.7758 19.65 87.7278 19.69C87.6798 19.73 87.6158 19.75 87.5358 19.75H86.9958ZM95.9523 19.75C95.8723 19.75 95.8043 19.726 95.7483 19.678C95.7003 19.622 95.6763 19.554 95.6763 19.474V14.47H93.5883C93.5083 14.47 93.4403 14.446 93.3843 14.398C93.3363 14.342 93.3123 14.274 93.3123 14.194V13.786C93.3123 13.706 93.3363 13.642 93.3843 13.594C93.4403 13.538 93.5083 13.51 93.5883 13.51H98.8683C98.9483 13.51 99.0123 13.538 99.0603 13.594C99.1163 13.642 99.1443 13.706 99.1443 13.786V14.194C99.1443 14.274 99.1163 14.342 99.0603 14.398C99.0123 14.446 98.9483 14.47 98.8683 14.47H96.7803V19.474C96.7803 19.554 96.7563 19.622 96.7083 19.678C96.6603 19.726 96.5923 19.75 96.5043 19.75H95.9523ZM100.461 19.75C100.381 19.75 100.313 19.726 100.257 19.678C100.209 19.622 100.185 19.554 100.185 19.474V13.786C100.185 13.706 100.209 13.642 100.257 13.594C100.313 13.538 100.381 13.51 100.461 13.51H101.037C101.117 13.51 101.181 13.538 101.229 13.594C101.285 13.642 101.313 13.706 101.313 13.786V15.55H102.657C103.473 15.55 104.069 15.742 104.445 16.126C104.821 16.51 105.009 17.03 105.009 17.686C105.009 18.39 104.801 18.91 104.385 19.246C103.969 19.582 103.345 19.75 102.513 19.75H100.461ZM101.301 18.85H102.561C103.041 18.85 103.393 18.766 103.617 18.598C103.841 18.422 103.953 18.118 103.953 17.686C103.953 17.27 103.845 16.962 103.629 16.762C103.413 16.554 103.057 16.45 102.561 16.45H101.301V18.85ZM111.658 19.87C111.09 19.87 110.598 19.762 110.182 19.546C109.774 19.322 109.458 19.006 109.234 18.598C109.01 18.182 108.89 17.686 108.874 17.11C108.866 16.99 108.862 16.83 108.862 16.63C108.862 16.43 108.866 16.27 108.874 16.15C108.89 15.574 109.01 15.082 109.234 14.674C109.458 14.258 109.774 13.942 110.182 13.726C110.598 13.502 111.09 13.39 111.658 13.39C112.122 13.39 112.518 13.454 112.846 13.582C113.182 13.71 113.458 13.874 113.674 14.074C113.89 14.274 114.05 14.49 114.154 14.722C114.266 14.954 114.326 15.174 114.334 15.382C114.342 15.462 114.318 15.526 114.262 15.574C114.206 15.622 114.138 15.646 114.058 15.646H113.482C113.402 15.646 113.342 15.63 113.302 15.598C113.262 15.558 113.222 15.494 113.182 15.406C113.038 15.014 112.842 14.738 112.594 14.578C112.346 14.418 112.038 14.338 111.67 14.338C111.19 14.338 110.798 14.486 110.494 14.782C110.198 15.078 110.038 15.554 110.014 16.21C110.006 16.498 110.006 16.778 110.014 17.05C110.038 17.714 110.198 18.194 110.494 18.49C110.798 18.778 111.19 18.922 111.67 18.922C112.038 18.922 112.346 18.842 112.594 18.682C112.842 18.522 113.038 18.246 113.182 17.854C113.222 17.766 113.262 17.706 113.302 17.674C113.342 17.634 113.402 17.614 113.482 17.614H114.058C114.138 17.614 114.206 17.638 114.262 17.686C114.318 17.734 114.342 17.798 114.334 17.878C114.326 18.046 114.29 18.218 114.226 18.394C114.162 18.57 114.058 18.75 113.914 18.934C113.778 19.11 113.606 19.27 113.398 19.414C113.19 19.55 112.938 19.662 112.642 19.75C112.354 19.83 112.026 19.87 111.658 19.87Z" fill="white"/>
<path d="M47.47 39.75C47.374 39.75 47.29 39.714 47.218 39.642C47.146 39.57 47.11 39.486 47.11 39.39C47.11 39.33 47.116 39.264 47.128 39.192L51.592 27.546C51.64 27.426 51.706 27.33 51.79 27.258C51.874 27.186 52 27.15 52.168 27.15H53.392C53.548 27.15 53.668 27.186 53.752 27.258C53.848 27.33 53.92 27.426 53.968 27.546L58.414 39.192C58.438 39.264 58.45 39.33 58.45 39.39C58.45 39.486 58.414 39.57 58.342 39.642C58.27 39.714 58.186 39.75 58.09 39.75H57.172C57.028 39.75 56.92 39.714 56.848 39.642C56.788 39.57 56.746 39.504 56.722 39.444L55.732 36.888H49.828L48.838 39.444C48.826 39.504 48.784 39.57 48.712 39.642C48.64 39.714 48.532 39.75 48.388 39.75H47.47ZM50.35 35.34H55.21L52.78 28.95L50.35 35.34ZM60.5726 43.17C60.4526 43.17 60.3506 43.128 60.2666 43.044C60.1946 42.972 60.1586 42.876 60.1586 42.756V30.804C60.1586 30.684 60.1946 30.588 60.2666 30.516C60.3506 30.432 60.4526 30.39 60.5726 30.39H61.4006C61.5206 30.39 61.6166 30.432 61.6886 30.516C61.7726 30.588 61.8146 30.684 61.8146 30.804V31.596C62.1026 31.2 62.4866 30.87 62.9666 30.606C63.4466 30.342 64.0466 30.21 64.7666 30.21C65.4386 30.21 66.0086 30.324 66.4766 30.552C66.9566 30.78 67.3466 31.092 67.6466 31.488C67.9586 31.884 68.1926 32.334 68.3486 32.838C68.5046 33.342 68.5886 33.882 68.6006 34.458C68.6126 34.65 68.6186 34.854 68.6186 35.07C68.6186 35.286 68.6126 35.49 68.6006 35.682C68.5886 36.246 68.5046 36.786 68.3486 37.302C68.1926 37.806 67.9586 38.256 67.6466 38.652C67.3466 39.036 66.9566 39.348 66.4766 39.588C66.0086 39.816 65.4386 39.93 64.7666 39.93C64.0706 39.93 63.4826 39.804 63.0026 39.552C62.5346 39.288 62.1506 38.964 61.8506 38.58V42.756C61.8506 42.876 61.8146 42.972 61.7426 43.044C61.6706 43.128 61.5686 43.17 61.4366 43.17H60.5726ZM64.3886 38.472C65.0126 38.472 65.4986 38.34 65.8466 38.076C66.2066 37.8 66.4646 37.446 66.6206 37.014C66.7766 36.57 66.8666 36.096 66.8906 35.592C66.9026 35.244 66.9026 34.896 66.8906 34.548C66.8666 34.044 66.7766 33.576 66.6206 33.144C66.4646 32.7 66.2066 32.346 65.8466 32.082C65.4986 31.806 65.0126 31.668 64.3886 31.668C63.8006 31.668 63.3206 31.806 62.9486 32.082C62.5886 32.358 62.3186 32.712 62.1386 33.144C61.9706 33.564 61.8746 33.996 61.8506 34.44C61.8386 34.632 61.8326 34.86 61.8326 35.124C61.8326 35.388 61.8386 35.622 61.8506 35.826C61.8626 36.246 61.9586 36.66 62.1386 37.068C62.3306 37.476 62.6126 37.812 62.9846 38.076C63.3566 38.34 63.8246 38.472 64.3886 38.472ZM71.2953 43.17C71.1753 43.17 71.0733 43.128 70.9893 43.044C70.9173 42.972 70.8813 42.876 70.8813 42.756V30.804C70.8813 30.684 70.9173 30.588 70.9893 30.516C71.0733 30.432 71.1753 30.39 71.2953 30.39H72.1233C72.2433 30.39 72.3393 30.432 72.4113 30.516C72.4953 30.588 72.5373 30.684 72.5373 30.804V31.596C72.8253 31.2 73.2093 30.87 73.6893 30.606C74.1693 30.342 74.7693 30.21 75.4893 30.21C76.1613 30.21 76.7313 30.324 77.1993 30.552C77.6793 30.78 78.0693 31.092 78.3693 31.488C78.6813 31.884 78.9153 32.334 79.0713 32.838C79.2273 33.342 79.3113 33.882 79.3233 34.458C79.3353 34.65 79.3413 34.854 79.3413 35.07C79.3413 35.286 79.3353 35.49 79.3233 35.682C79.3113 36.246 79.2273 36.786 79.0713 37.302C78.9153 37.806 78.6813 38.256 78.3693 38.652C78.0693 39.036 77.6793 39.348 77.1993 39.588C76.7313 39.816 76.1613 39.93 75.4893 39.93C74.7933 39.93 74.2053 39.804 73.7253 39.552C73.2573 39.288 72.8733 38.964 72.5733 38.58V42.756C72.5733 42.876 72.5373 42.972 72.4653 43.044C72.3933 43.128 72.2913 43.17 72.1593 43.17H71.2953ZM75.1113 38.472C75.7353 38.472 76.2213 38.34 76.5693 38.076C76.9293 37.8 77.1873 37.446 77.3433 37.014C77.4993 36.57 77.5893 36.096 77.6133 35.592C77.6253 35.244 77.6253 34.896 77.6133 34.548C77.5893 34.044 77.4993 33.576 77.3433 33.144C77.1873 32.7 76.9293 32.346 76.5693 32.082C76.2213 31.806 75.7353 31.668 75.1113 31.668C74.5233 31.668 74.0433 31.806 73.6713 32.082C73.3113 32.358 73.0413 32.712 72.8613 33.144C72.6933 33.564 72.5973 33.996 72.5733 34.44C72.5613 34.632 72.5553 34.86 72.5553 35.124C72.5553 35.388 72.5613 35.622 72.5733 35.826C72.5853 36.246 72.6813 36.66 72.8613 37.068C73.0533 37.476 73.3353 37.812 73.7073 38.076C74.0793 38.34 74.5473 38.472 75.1113 38.472ZM90.282 39.93C89.238 39.93 88.362 39.774 87.654 39.462C86.946 39.138 86.4 38.724 86.016 38.22C85.644 37.704 85.446 37.158 85.422 36.582C85.422 36.486 85.458 36.402 85.53 36.33C85.614 36.246 85.71 36.204 85.818 36.204H86.736C86.88 36.204 86.988 36.24 87.06 36.312C87.132 36.384 87.18 36.468 87.204 36.564C87.264 36.852 87.408 37.14 87.636 37.428C87.876 37.704 88.206 37.938 88.626 38.13C89.058 38.31 89.61 38.4 90.282 38.4C91.314 38.4 92.07 38.22 92.55 37.86C93.042 37.488 93.288 36.996 93.288 36.384C93.288 35.964 93.156 35.628 92.892 35.376C92.64 35.112 92.25 34.878 91.722 34.674C91.194 34.47 90.51 34.248 89.67 34.008C88.794 33.756 88.068 33.48 87.492 33.18C86.916 32.88 86.484 32.508 86.196 32.064C85.92 31.62 85.782 31.056 85.782 30.372C85.782 29.724 85.956 29.148 86.304 28.644C86.652 28.128 87.15 27.72 87.798 27.42C88.458 27.12 89.256 26.97 90.192 26.97C90.936 26.97 91.584 27.072 92.136 27.276C92.7 27.468 93.168 27.732 93.54 28.068C93.912 28.392 94.194 28.746 94.386 29.13C94.578 29.502 94.68 29.868 94.692 30.228C94.692 30.312 94.662 30.396 94.602 30.48C94.542 30.552 94.446 30.588 94.314 30.588H93.36C93.276 30.588 93.186 30.564 93.09 30.516C93.006 30.468 92.94 30.378 92.892 30.246C92.82 29.754 92.544 29.34 92.064 29.004C91.584 28.668 90.96 28.5 90.192 28.5C89.412 28.5 88.776 28.65 88.284 28.95C87.804 29.25 87.564 29.718 87.564 30.354C87.564 30.762 87.678 31.104 87.906 31.38C88.134 31.644 88.494 31.878 88.986 32.082C89.478 32.286 90.12 32.502 90.912 32.73C91.872 32.994 92.658 33.276 93.27 33.576C93.882 33.864 94.332 34.23 94.62 34.674C94.92 35.106 95.07 35.664 95.07 36.348C95.07 37.104 94.872 37.752 94.476 38.292C94.08 38.82 93.522 39.228 92.802 39.516C92.094 39.792 91.254 39.93 90.282 39.93ZM100.849 39.75C100.177 39.75 99.6313 39.624 99.2113 39.372C98.7913 39.108 98.4853 38.742 98.2933 38.274C98.1013 37.794 98.0053 37.23 98.0053 36.582V31.83H96.6013C96.4813 31.83 96.3793 31.794 96.2953 31.722C96.2233 31.638 96.1873 31.536 96.1873 31.416V30.804C96.1873 30.684 96.2233 30.588 96.2953 30.516C96.3793 30.432 96.4813 30.39 96.6013 30.39H98.0053V27.384C98.0053 27.264 98.0413 27.168 98.1133 27.096C98.1973 27.012 98.2993 26.97 98.4193 26.97H99.2653C99.3853 26.97 99.4813 27.012 99.5533 27.096C99.6373 27.168 99.6793 27.264 99.6793 27.384V30.39H101.911C102.031 30.39 102.127 30.432 102.199 30.516C102.283 30.588 102.325 30.684 102.325 30.804V31.416C102.325 31.536 102.283 31.638 102.199 31.722C102.127 31.794 102.031 31.83 101.911 31.83H99.6793V36.456C99.6793 37.02 99.7753 37.464 99.9673 37.788C100.159 38.112 100.501 38.274 100.993 38.274H102.091C102.211 38.274 102.307 38.316 102.379 38.4C102.463 38.472 102.505 38.568 102.505 38.688V39.336C102.505 39.456 102.463 39.558 102.379 39.642C102.307 39.714 102.211 39.75 102.091 39.75H100.849ZM108.061 39.93C107.149 39.93 106.387 39.756 105.775 39.408C105.163 39.06 104.695 38.58 104.371 37.968C104.047 37.344 103.867 36.636 103.831 35.844C103.819 35.64 103.813 35.382 103.813 35.07C103.813 34.746 103.819 34.488 103.831 34.296C103.867 33.492 104.047 32.784 104.371 32.172C104.707 31.56 105.181 31.08 105.793 30.732C106.405 30.384 107.161 30.21 108.061 30.21C108.961 30.21 109.717 30.384 110.329 30.732C110.941 31.08 111.409 31.56 111.733 32.172C112.069 32.784 112.255 33.492 112.291 34.296C112.303 34.488 112.309 34.746 112.309 35.07C112.309 35.382 112.303 35.64 112.291 35.844C112.255 36.636 112.075 37.344 111.751 37.968C111.427 38.58 110.959 39.06 110.347 39.408C109.735 39.756 108.973 39.93 108.061 39.93ZM108.061 38.544C108.805 38.544 109.399 38.31 109.843 37.842C110.287 37.362 110.527 36.666 110.563 35.754C110.575 35.574 110.581 35.346 110.581 35.07C110.581 34.794 110.575 34.566 110.563 34.386C110.527 33.474 110.287 32.784 109.843 32.316C109.399 31.836 108.805 31.596 108.061 31.596C107.317 31.596 106.717 31.836 106.261 32.316C105.817 32.784 105.583 33.474 105.559 34.386C105.547 34.566 105.541 34.794 105.541 35.07C105.541 35.346 105.547 35.574 105.559 35.754C105.583 36.666 105.817 37.362 106.261 37.842C106.717 38.31 107.317 38.544 108.061 38.544ZM114.976 39.75C114.856 39.75 114.754 39.714 114.67 39.642C114.598 39.558 114.562 39.456 114.562 39.336V30.822C114.562 30.702 114.598 30.6 114.67 30.516C114.754 30.432 114.856 30.39 114.976 30.39H115.804C115.924 30.39 116.026 30.432 116.11 30.516C116.194 30.6 116.236 30.702 116.236 30.822V31.614C116.476 31.206 116.806 30.9 117.226 30.696C117.646 30.492 118.15 30.39 118.738 30.39H119.458C119.578 30.39 119.674 30.432 119.746 30.516C119.818 30.588 119.854 30.684 119.854 30.804V31.542C119.854 31.662 119.818 31.758 119.746 31.83C119.674 31.902 119.578 31.938 119.458 31.938H118.378C117.73 31.938 117.22 32.13 116.848 32.514C116.476 32.886 116.29 33.396 116.29 34.044V39.336C116.29 39.456 116.248 39.558 116.164 39.642C116.08 39.714 115.978 39.75 115.858 39.75H114.976ZM124.951 39.93C123.715 39.93 122.731 39.552 121.999 38.796C121.267 38.028 120.865 36.984 120.793 35.664C120.781 35.508 120.775 35.31 120.775 35.07C120.775 34.818 120.781 34.614 120.793 34.458C120.841 33.606 121.039 32.862 121.387 32.226C121.735 31.578 122.209 31.08 122.809 30.732C123.421 30.384 124.135 30.21 124.951 30.21C125.863 30.21 126.625 30.402 127.237 30.786C127.861 31.17 128.335 31.716 128.659 32.424C128.983 33.132 129.145 33.96 129.145 34.908V35.214C129.145 35.346 129.103 35.448 129.019 35.52C128.947 35.592 128.851 35.628 128.731 35.628H122.503C122.503 35.64 122.503 35.664 122.503 35.7C122.503 35.736 122.503 35.766 122.503 35.79C122.527 36.282 122.635 36.744 122.827 37.176C123.019 37.596 123.295 37.938 123.655 38.202C124.015 38.466 124.447 38.598 124.951 38.598C125.383 38.598 125.743 38.532 126.031 38.4C126.319 38.268 126.553 38.124 126.733 37.968C126.913 37.8 127.033 37.674 127.093 37.59C127.201 37.434 127.285 37.344 127.345 37.32C127.405 37.284 127.501 37.266 127.633 37.266H128.497C128.617 37.266 128.713 37.302 128.785 37.374C128.869 37.434 128.905 37.524 128.893 37.644C128.881 37.824 128.785 38.046 128.605 38.31C128.425 38.562 128.167 38.814 127.831 39.066C127.495 39.318 127.087 39.528 126.607 39.696C126.127 39.852 125.575 39.93 124.951 39.93ZM122.503 34.386H127.435V34.332C127.435 33.792 127.333 33.312 127.129 32.892C126.937 32.472 126.655 32.142 126.283 31.902C125.911 31.65 125.467 31.524 124.951 31.524C124.435 31.524 123.991 31.65 123.619 31.902C123.259 32.142 122.983 32.472 122.791 32.892C122.599 33.312 122.503 33.792 122.503 34.332V34.386Z" fill="white"/>
<rect x="1.25" y="1.25" width="143.25" height="52" rx="4.5" stroke="white" stroke-opacity="0.13"/>
<defs>
<clipPath id="clip0_4_177">
<rect width="24" height="24" fill="white" transform="translate(13.75 15.25)"/>
</clipPath>
</defs>
</svg>
