<svg width="13" height="12" viewBox="0 0 13 12" fill="none" xmlns="http://www.w3.org/2000/svg">
<path d="M11.0742 11.25H1.75C1.2487 11.25 0.831706 11.0814 0.499023 10.7441C0.166341 10.4069 0 9.99219 0 9.5V2.5C0 2.00781 0.166341 1.5931 0.499023 1.25586C0.831706 0.91862 1.2487 0.75 1.75 0.75H11.0742C11.5755 0.75 11.9925 0.91862 12.3252 1.25586C12.6579 1.5931 12.8242 2.00781 12.8242 2.5V9.5C12.8242 9.99219 12.6579 10.4069 12.3252 10.7441C11.9925 11.0814 11.5755 11.25 11.0742 11.25ZM1.75 1.91211C1.56771 1.91211 1.42415 1.9668 1.31934 2.07617C1.21452 2.18555 1.16211 2.32682 1.16211 2.5V9.5C1.16211 9.67318 1.21452 9.81445 1.31934 9.92383C1.42415 10.0332 1.56771 10.0879 1.75 10.0879H11.0742C11.2565 10.0879 11.4001 10.0332 11.5049 9.92383C11.6097 9.81445 11.6621 9.67318 11.6621 9.5V2.5C11.6621 2.32682 11.6097 2.18555 11.5049 2.07617C11.4001 1.9668 11.2565 1.91211 11.0742 1.91211H1.75ZM6.41211 7.16211C6.35742 7.16211 6.30046 7.15072 6.24121 7.12793C6.18197 7.10514 6.12044 7.08008 6.05664 7.05273L0.232422 2.96484C0.113932 2.88281 0.0432943 2.76204 0.0205078 2.60254C-0.00227865 2.44303 0.0273438 2.29036 0.109375 2.14453C0.200521 2.03516 0.323568 1.9668 0.478516 1.93945C0.633464 1.91211 0.783854 1.94401 0.929688 2.03516L6.41211 5.87695L11.8945 2.03516C12.0404 1.94401 12.1908 1.91211 12.3457 1.93945C12.5007 1.9668 12.6237 2.03516 12.7148 2.14453C12.7969 2.29036 12.8265 2.44303 12.8037 2.60254C12.7809 2.76204 12.7103 2.88281 12.5918 2.96484L6.76758 7.05273C6.70378 7.08008 6.64225 7.10514 6.58301 7.12793C6.52376 7.15072 6.4668 7.16211 6.41211 7.16211Z" fill="#505050"/>
</svg>
