<svg width="160" height="54" viewBox="0 0 160 54" fill="none" xmlns="http://www.w3.org/2000/svg">
<g clip-path="url(#clip0_4_184)">
<path d="M15.1343 15.25V27.0395V39.25L27.7659 27.0395L15.1343 15.25Z" fill="#5CDADD"/>
<path d="M31.0501 23.7131L26.0395 20.85L15.1343 15.25L27.7659 27.0395L31.0501 23.7131Z" fill="#BDECC4"/>
<path d="M15.1343 39.25L26.0395 33.229L31.0501 30.3658L27.7659 27.0395L15.1343 39.25Z" fill="#DC68A1"/>
<path d="M31.0501 23.7131L27.7659 27.0394L31.0501 30.3657L36.1448 27.4184C36.4396 27.2499 36.4396 26.871 36.1448 26.7026L31.0501 23.7131Z" fill="#FFCA96"/>
</g>
<path opacity="0.55" d="M50.326 19.87C49.838 19.87 49.406 19.814 49.03 19.702C48.654 19.59 48.338 19.438 48.082 19.246C47.826 19.046 47.622 18.818 47.47 18.562C47.326 18.306 47.242 18.03 47.218 17.734C47.21 17.662 47.23 17.606 47.278 17.566C47.334 17.526 47.398 17.506 47.47 17.506H48.07C48.142 17.506 48.206 17.522 48.262 17.554C48.326 17.586 48.374 17.654 48.406 17.758C48.502 18.078 48.71 18.342 49.03 18.55C49.35 18.75 49.778 18.85 50.314 18.85C50.69 18.85 51.03 18.794 51.334 18.682C51.638 18.562 51.882 18.394 52.066 18.178C52.25 17.954 52.342 17.686 52.342 17.374C52.342 16.902 52.17 16.538 51.826 16.282C51.49 16.018 51.03 15.886 50.446 15.886H49.582C49.502 15.886 49.438 15.862 49.39 15.814C49.342 15.758 49.318 15.69 49.318 15.61V15.19C49.318 15.102 49.342 15.034 49.39 14.986C49.438 14.93 49.502 14.902 49.582 14.902H50.398C50.894 14.902 51.294 14.794 51.598 14.578C51.91 14.362 52.066 14.018 52.066 13.546C52.066 13.282 51.986 13.054 51.826 12.862C51.674 12.67 51.47 12.522 51.214 12.418C50.958 12.306 50.67 12.25 50.35 12.25C49.862 12.25 49.454 12.338 49.126 12.514C48.798 12.69 48.594 12.974 48.514 13.366C48.49 13.454 48.454 13.518 48.406 13.558C48.358 13.59 48.298 13.606 48.226 13.606H47.578C47.506 13.606 47.442 13.582 47.386 13.534C47.338 13.486 47.318 13.426 47.326 13.354C47.35 13.05 47.434 12.77 47.578 12.514C47.722 12.25 47.918 12.022 48.166 11.83C48.422 11.638 48.734 11.49 49.102 11.386C49.47 11.282 49.89 11.23 50.362 11.23C51.01 11.23 51.546 11.338 51.97 11.554C52.394 11.77 52.714 12.05 52.93 12.394C53.146 12.73 53.254 13.094 53.254 13.486C53.254 13.726 53.222 13.962 53.158 14.194C53.102 14.426 53.002 14.638 52.858 14.83C52.722 15.022 52.534 15.19 52.294 15.334C52.582 15.47 52.814 15.646 52.99 15.862C53.174 16.07 53.31 16.306 53.398 16.57C53.494 16.826 53.542 17.102 53.542 17.398C53.542 17.886 53.41 18.314 53.146 18.682C52.89 19.05 52.522 19.342 52.042 19.558C51.562 19.766 50.99 19.87 50.326 19.87ZM56.8311 19.87C56.4311 19.87 56.0671 19.79 55.7391 19.63C55.4111 19.47 55.1471 19.254 54.9471 18.982C54.7471 18.71 54.6471 18.402 54.6471 18.058C54.6471 17.506 54.8711 17.066 55.3191 16.738C55.7671 16.41 56.3511 16.194 57.0711 16.09L58.8591 15.838V15.49C58.8591 15.106 58.7471 14.806 58.5231 14.59C58.3071 14.374 57.9511 14.266 57.4551 14.266C57.0951 14.266 56.8031 14.338 56.5791 14.482C56.3631 14.626 56.2111 14.81 56.1231 15.034C56.0751 15.154 55.9911 15.214 55.8711 15.214H55.3311C55.2431 15.214 55.1751 15.19 55.1271 15.142C55.0871 15.086 55.0671 15.022 55.0671 14.95C55.0671 14.83 55.1111 14.682 55.1991 14.506C55.2951 14.33 55.4391 14.158 55.6311 13.99C55.8231 13.822 56.0671 13.682 56.3631 13.57C56.6671 13.45 57.0351 13.39 57.4671 13.39C57.9471 13.39 58.3511 13.454 58.6791 13.582C59.0071 13.702 59.2631 13.866 59.4471 14.074C59.6391 14.282 59.7751 14.518 59.8551 14.782C59.9431 15.046 59.9871 15.314 59.9871 15.586V19.474C59.9871 19.554 59.9591 19.622 59.9031 19.678C59.8551 19.726 59.7911 19.75 59.7111 19.75H59.1591C59.0711 19.75 59.0031 19.726 58.9551 19.678C58.9071 19.622 58.8831 19.554 58.8831 19.474V18.958C58.7791 19.102 58.6391 19.246 58.4631 19.39C58.2871 19.526 58.0671 19.642 57.8031 19.738C57.5391 19.826 57.2151 19.87 56.8311 19.87ZM57.0831 18.97C57.4111 18.97 57.7111 18.902 57.9831 18.766C58.2551 18.622 58.4671 18.402 58.6191 18.106C58.7791 17.81 58.8591 17.438 58.8591 16.99V16.654L57.4671 16.858C56.8991 16.938 56.4711 17.074 56.1831 17.266C55.8951 17.45 55.7511 17.686 55.7511 17.974C55.7511 18.198 55.8151 18.386 55.9431 18.538C56.0791 18.682 56.2471 18.79 56.4471 18.862C56.6551 18.934 56.8671 18.97 57.0831 18.97ZM61.9882 19.75C61.9082 19.75 61.8402 19.726 61.7842 19.678C61.7362 19.622 61.7122 19.554 61.7122 19.474V13.786C61.7122 13.706 61.7362 13.642 61.7842 13.594C61.8402 13.538 61.9082 13.51 61.9882 13.51H65.5762C65.6562 13.51 65.7202 13.538 65.7682 13.594C65.8162 13.642 65.8402 13.706 65.8402 13.786V14.194C65.8402 14.274 65.8162 14.342 65.7682 14.398C65.7202 14.446 65.6562 14.47 65.5762 14.47H62.8282V19.474C62.8282 19.554 62.8042 19.622 62.7562 19.678C62.7082 19.726 62.6442 19.75 62.5642 19.75H61.9882ZM67.1565 22.03C67.0765 22.03 67.0085 22.002 66.9525 21.946C66.9045 21.898 66.8805 21.834 66.8805 21.754V13.786C66.8805 13.706 66.9045 13.642 66.9525 13.594C67.0085 13.538 67.0765 13.51 67.1565 13.51H67.7085C67.7885 13.51 67.8525 13.538 67.9005 13.594C67.9565 13.642 67.9845 13.706 67.9845 13.786V14.314C68.1765 14.05 68.4325 13.83 68.7525 13.654C69.0725 13.478 69.4725 13.39 69.9525 13.39C70.4005 13.39 70.7805 13.466 71.0925 13.618C71.4125 13.77 71.6725 13.978 71.8725 14.242C72.0805 14.506 72.2365 14.806 72.3405 15.142C72.4445 15.478 72.5005 15.838 72.5085 16.222C72.5165 16.35 72.5205 16.486 72.5205 16.63C72.5205 16.774 72.5165 16.91 72.5085 17.038C72.5005 17.414 72.4445 17.774 72.3405 18.118C72.2365 18.454 72.0805 18.754 71.8725 19.018C71.6725 19.274 71.4125 19.482 71.0925 19.642C70.7805 19.794 70.4005 19.87 69.9525 19.87C69.4885 19.87 69.0965 19.786 68.7765 19.618C68.4645 19.442 68.2085 19.226 68.0085 18.97V21.754C68.0085 21.834 67.9845 21.898 67.9365 21.946C67.8885 22.002 67.8205 22.03 67.7325 22.03H67.1565ZM69.7005 18.898C70.1165 18.898 70.4405 18.81 70.6725 18.634C70.9125 18.45 71.0845 18.214 71.1885 17.926C71.2925 17.63 71.3525 17.314 71.3685 16.978C71.3765 16.746 71.3765 16.514 71.3685 16.282C71.3525 15.946 71.2925 15.634 71.1885 15.346C71.0845 15.05 70.9125 14.814 70.6725 14.638C70.4405 14.454 70.1165 14.362 69.7005 14.362C69.3085 14.362 68.9885 14.454 68.7405 14.638C68.5005 14.822 68.3205 15.058 68.2005 15.346C68.0885 15.626 68.0245 15.914 68.0085 16.21C68.0005 16.338 67.9965 16.49 67.9965 16.666C67.9965 16.842 68.0005 16.998 68.0085 17.134C68.0165 17.414 68.0805 17.69 68.2005 17.962C68.3285 18.234 68.5165 18.458 68.7645 18.634C69.0125 18.81 69.3245 18.898 69.7005 18.898ZM74.3049 22.03C74.2169 22.03 74.1489 22.002 74.1009 21.946C74.0529 21.898 74.0289 21.834 74.0289 21.754V21.346C74.0289 21.266 74.0529 21.198 74.1009 21.142C74.1489 21.094 74.2169 21.07 74.3049 21.07H74.6169C74.8009 21.07 74.9489 21.034 75.0609 20.962C75.1729 20.89 75.2729 20.766 75.3609 20.59C75.4569 20.422 75.5689 20.19 75.6969 19.894L78.3009 13.714C78.3249 13.65 78.3569 13.602 78.3969 13.57C78.4449 13.53 78.5129 13.51 78.6009 13.51H79.1289C79.2009 13.51 79.2609 13.534 79.3089 13.582C79.3569 13.63 79.3809 13.686 79.3809 13.75C79.3809 13.782 79.3769 13.814 79.3689 13.846C79.3609 13.87 79.3449 13.91 79.3209 13.966L77.0409 19.366C76.9209 19.654 76.7889 19.954 76.6449 20.266C76.5089 20.578 76.3529 20.866 76.1769 21.13C76.0089 21.402 75.8089 21.618 75.5769 21.778C75.3449 21.946 75.0729 22.03 74.7609 22.03H74.3049ZM75.9729 19.57L73.5489 13.966C73.5089 13.87 73.4889 13.802 73.4889 13.762C73.4969 13.69 73.5249 13.63 73.5729 13.582C73.6209 13.534 73.6769 13.51 73.7409 13.51H74.3049C74.3929 13.51 74.4569 13.53 74.4969 13.57C74.5449 13.61 74.5809 13.658 74.6049 13.714L76.5969 18.478L75.9729 19.57ZM82.7631 19.87C82.2911 19.87 81.8911 19.814 81.5631 19.702C81.2431 19.582 80.9831 19.434 80.7831 19.258C80.5911 19.074 80.4511 18.886 80.3631 18.694C80.2751 18.494 80.2271 18.31 80.2191 18.142C80.2191 18.07 80.2431 18.014 80.2911 17.974C80.3391 17.926 80.3951 17.902 80.4591 17.902H81.0231C81.0951 17.902 81.1551 17.922 81.2031 17.962C81.2511 17.994 81.2871 18.054 81.3111 18.142C81.4071 18.446 81.5911 18.658 81.8631 18.778C82.1351 18.898 82.4671 18.958 82.8591 18.958C83.1151 18.958 83.3511 18.926 83.5671 18.862C83.7831 18.79 83.9511 18.678 84.0711 18.526C84.1991 18.374 84.2631 18.186 84.2631 17.962C84.2631 17.634 84.1671 17.386 83.9751 17.218C83.7911 17.05 83.5031 16.966 83.1111 16.966H82.4511C82.3711 16.966 82.3071 16.942 82.2591 16.894C82.2111 16.846 82.1871 16.782 82.1871 16.702V16.378C82.1871 16.306 82.2111 16.246 82.2591 16.198C82.3071 16.142 82.3711 16.114 82.4511 16.114H83.0391C83.3671 16.114 83.6191 16.05 83.7951 15.922C83.9711 15.794 84.0591 15.59 84.0591 15.31C84.0591 15.142 84.0191 14.982 83.9391 14.83C83.8591 14.678 83.7231 14.554 83.5311 14.458C83.3471 14.354 83.0911 14.302 82.7631 14.302C82.2991 14.302 81.9711 14.382 81.7791 14.542C81.5951 14.694 81.4631 14.922 81.3831 15.226C81.3511 15.314 81.3111 15.374 81.2631 15.406C81.2231 15.438 81.1631 15.454 81.0831 15.454H80.5431C80.4711 15.454 80.4111 15.434 80.3631 15.394C80.3151 15.354 80.2911 15.298 80.2911 15.226C80.2991 14.986 80.3511 14.758 80.4471 14.542C80.5511 14.326 80.7031 14.13 80.9031 13.954C81.1111 13.778 81.3671 13.642 81.6711 13.546C81.9831 13.442 82.3471 13.39 82.7631 13.39C83.3631 13.39 83.8351 13.482 84.1791 13.666C84.5311 13.85 84.7791 14.078 84.9231 14.35C85.0751 14.614 85.1511 14.878 85.1511 15.142C85.1511 15.454 85.0991 15.714 84.9951 15.922C84.8991 16.13 84.7071 16.306 84.4191 16.45C84.7791 16.586 85.0271 16.79 85.1631 17.062C85.2991 17.334 85.3711 17.65 85.3791 18.01C85.3871 18.426 85.2751 18.77 85.0431 19.042C84.8191 19.314 84.5111 19.522 84.1191 19.666C83.7271 19.802 83.2751 19.87 82.7631 19.87ZM86.9958 19.75C86.9238 19.75 86.8598 19.726 86.8038 19.678C86.7558 19.622 86.7318 19.562 86.7318 19.498V13.786C86.7318 13.706 86.7558 13.642 86.8038 13.594C86.8598 13.538 86.9278 13.51 87.0078 13.51H87.5838C87.6638 13.51 87.7278 13.538 87.7758 13.594C87.8238 13.642 87.8478 13.706 87.8478 13.786V18.874L87.5358 18.55L91.1718 13.69C91.2118 13.642 91.2558 13.602 91.3038 13.57C91.3518 13.53 91.4118 13.51 91.4838 13.51H92.0358C92.0998 13.51 92.1558 13.534 92.2038 13.582C92.2598 13.63 92.2878 13.686 92.2878 13.75V19.474C92.2878 19.554 92.2598 19.622 92.2038 19.678C92.1558 19.726 92.0918 19.75 92.0117 19.75H91.4478C91.3598 19.75 91.2918 19.726 91.2438 19.678C91.1958 19.622 91.1718 19.554 91.1718 19.474V14.686L91.5078 14.674L87.8478 19.57C87.8158 19.61 87.7758 19.65 87.7278 19.69C87.6798 19.73 87.6158 19.75 87.5358 19.75H86.9958ZM95.9523 19.75C95.8723 19.75 95.8043 19.726 95.7483 19.678C95.7003 19.622 95.6763 19.554 95.6763 19.474V14.47H93.5883C93.5083 14.47 93.4403 14.446 93.3843 14.398C93.3363 14.342 93.3123 14.274 93.3123 14.194V13.786C93.3123 13.706 93.3363 13.642 93.3843 13.594C93.4403 13.538 93.5083 13.51 93.5883 13.51H98.8683C98.9483 13.51 99.0123 13.538 99.0603 13.594C99.1163 13.642 99.1443 13.706 99.1443 13.786V14.194C99.1443 14.274 99.1163 14.342 99.0603 14.398C99.0123 14.446 98.9483 14.47 98.8683 14.47H96.7803V19.474C96.7803 19.554 96.7563 19.622 96.7083 19.678C96.6603 19.726 96.5923 19.75 96.5043 19.75H95.9523ZM100.461 19.75C100.381 19.75 100.313 19.726 100.257 19.678C100.209 19.622 100.185 19.554 100.185 19.474V13.786C100.185 13.706 100.209 13.642 100.257 13.594C100.313 13.538 100.381 13.51 100.461 13.51H101.037C101.117 13.51 101.181 13.538 101.229 13.594C101.285 13.642 101.313 13.706 101.313 13.786V15.55H102.657C103.473 15.55 104.069 15.742 104.445 16.126C104.821 16.51 105.009 17.03 105.009 17.686C105.009 18.39 104.801 18.91 104.385 19.246C103.969 19.582 103.345 19.75 102.513 19.75H100.461ZM101.301 18.85H102.561C103.041 18.85 103.393 18.766 103.617 18.598C103.841 18.422 103.953 18.118 103.953 17.686C103.953 17.27 103.845 16.962 103.629 16.762C103.413 16.554 103.057 16.45 102.561 16.45H101.301V18.85ZM111.658 19.87C111.09 19.87 110.598 19.762 110.182 19.546C109.774 19.322 109.458 19.006 109.234 18.598C109.01 18.182 108.89 17.686 108.874 17.11C108.866 16.99 108.862 16.83 108.862 16.63C108.862 16.43 108.866 16.27 108.874 16.15C108.89 15.574 109.01 15.082 109.234 14.674C109.458 14.258 109.774 13.942 110.182 13.726C110.598 13.502 111.09 13.39 111.658 13.39C112.122 13.39 112.518 13.454 112.846 13.582C113.182 13.71 113.458 13.874 113.674 14.074C113.89 14.274 114.05 14.49 114.154 14.722C114.266 14.954 114.326 15.174 114.334 15.382C114.342 15.462 114.318 15.526 114.262 15.574C114.206 15.622 114.138 15.646 114.058 15.646H113.482C113.402 15.646 113.342 15.63 113.302 15.598C113.262 15.558 113.222 15.494 113.182 15.406C113.038 15.014 112.842 14.738 112.594 14.578C112.346 14.418 112.038 14.338 111.67 14.338C111.19 14.338 110.798 14.486 110.494 14.782C110.198 15.078 110.038 15.554 110.014 16.21C110.006 16.498 110.006 16.778 110.014 17.05C110.038 17.714 110.198 18.194 110.494 18.49C110.798 18.778 111.19 18.922 111.67 18.922C112.038 18.922 112.346 18.842 112.594 18.682C112.842 18.522 113.038 18.246 113.182 17.854C113.222 17.766 113.262 17.706 113.302 17.674C113.342 17.634 113.402 17.614 113.482 17.614H114.058C114.138 17.614 114.206 17.638 114.262 17.686C114.318 17.734 114.342 17.798 114.334 17.878C114.326 18.046 114.29 18.218 114.226 18.394C114.162 18.57 114.058 18.75 113.914 18.934C113.778 19.11 113.606 19.27 113.398 19.414C113.19 19.55 112.938 19.662 112.642 19.75C112.354 19.83 112.026 19.87 111.658 19.87Z" fill="white"/>
<path d="M52.888 39.93C51.832 39.93 50.932 39.732 50.188 39.336C49.456 38.94 48.892 38.382 48.496 37.662C48.112 36.942 47.896 36.096 47.848 35.124C47.836 34.596 47.83 34.038 47.83 33.45C47.83 32.85 47.836 32.28 47.848 31.74C47.896 30.768 48.112 29.928 48.496 29.22C48.892 28.512 49.462 27.96 50.206 27.564C50.95 27.168 51.844 26.97 52.888 26.97C53.74 26.97 54.478 27.09 55.102 27.33C55.726 27.57 56.236 27.876 56.632 28.248C57.04 28.608 57.34 28.986 57.532 29.382C57.736 29.778 57.844 30.126 57.856 30.426C57.868 30.534 57.838 30.624 57.766 30.696C57.694 30.756 57.598 30.786 57.478 30.786H56.416C56.296 30.786 56.206 30.762 56.146 30.714C56.098 30.666 56.05 30.582 56.002 30.462C55.894 30.15 55.714 29.844 55.462 29.544C55.222 29.244 54.892 28.998 54.472 28.806C54.064 28.602 53.536 28.5 52.888 28.5C51.94 28.5 51.172 28.758 50.584 29.274C50.008 29.79 49.696 30.642 49.648 31.83C49.612 32.898 49.612 33.966 49.648 35.034C49.696 36.234 50.014 37.098 50.602 37.626C51.19 38.142 51.958 38.4 52.906 38.4C53.542 38.4 54.106 38.286 54.598 38.058C55.102 37.818 55.498 37.452 55.786 36.96C56.074 36.468 56.218 35.844 56.218 35.088V34.332H53.518C53.398 34.332 53.296 34.296 53.212 34.224C53.14 34.14 53.104 34.032 53.104 33.9V33.324C53.104 33.192 53.14 33.09 53.212 33.018C53.296 32.934 53.398 32.892 53.518 32.892H57.586C57.718 32.892 57.82 32.934 57.892 33.018C57.964 33.09 58 33.192 58 33.324V35.052C58 36.036 57.796 36.894 57.388 37.626C56.992 38.358 56.41 38.928 55.642 39.336C54.874 39.732 53.956 39.93 52.888 39.93ZM64.168 39.93C63.256 39.93 62.494 39.756 61.882 39.408C61.27 39.06 60.802 38.58 60.478 37.968C60.154 37.344 59.974 36.636 59.938 35.844C59.926 35.64 59.92 35.382 59.92 35.07C59.92 34.746 59.926 34.488 59.938 34.296C59.974 33.492 60.154 32.784 60.478 32.172C60.814 31.56 61.288 31.08 61.9 30.732C62.512 30.384 63.268 30.21 64.168 30.21C65.068 30.21 65.824 30.384 66.436 30.732C67.048 31.08 67.516 31.56 67.84 32.172C68.176 32.784 68.362 33.492 68.398 34.296C68.41 34.488 68.416 34.746 68.416 35.07C68.416 35.382 68.41 35.64 68.398 35.844C68.362 36.636 68.182 37.344 67.858 37.968C67.534 38.58 67.066 39.06 66.454 39.408C65.842 39.756 65.08 39.93 64.168 39.93ZM64.168 38.544C64.912 38.544 65.506 38.31 65.95 37.842C66.394 37.362 66.634 36.666 66.67 35.754C66.682 35.574 66.688 35.346 66.688 35.07C66.688 34.794 66.682 34.566 66.67 34.386C66.634 33.474 66.394 32.784 65.95 32.316C65.506 31.836 64.912 31.596 64.168 31.596C63.424 31.596 62.824 31.836 62.368 32.316C61.924 32.784 61.69 33.474 61.666 34.386C61.654 34.566 61.648 34.794 61.648 35.07C61.648 35.346 61.654 35.574 61.666 35.754C61.69 36.666 61.924 37.362 62.368 37.842C62.824 38.31 63.424 38.544 64.168 38.544ZM74.5039 39.93C73.5919 39.93 72.8299 39.756 72.2179 39.408C71.6059 39.06 71.1379 38.58 70.8139 37.968C70.4899 37.344 70.3099 36.636 70.2739 35.844C70.2619 35.64 70.2559 35.382 70.2559 35.07C70.2559 34.746 70.2619 34.488 70.2739 34.296C70.3099 33.492 70.4899 32.784 70.8139 32.172C71.1499 31.56 71.6239 31.08 72.2359 30.732C72.8479 30.384 73.6039 30.21 74.5039 30.21C75.4039 30.21 76.1599 30.384 76.7719 30.732C77.3839 31.08 77.8519 31.56 78.1759 32.172C78.5119 32.784 78.6979 33.492 78.7339 34.296C78.7459 34.488 78.7519 34.746 78.7519 35.07C78.7519 35.382 78.7459 35.64 78.7339 35.844C78.6979 36.636 78.5179 37.344 78.1939 37.968C77.8699 38.58 77.4019 39.06 76.7899 39.408C76.1779 39.756 75.4159 39.93 74.5039 39.93ZM74.5039 38.544C75.2479 38.544 75.8419 38.31 76.2859 37.842C76.7299 37.362 76.9699 36.666 77.0059 35.754C77.0179 35.574 77.0239 35.346 77.0239 35.07C77.0239 34.794 77.0179 34.566 77.0059 34.386C76.9699 33.474 76.7299 32.784 76.2859 32.316C75.8419 31.836 75.2479 31.596 74.5039 31.596C73.7599 31.596 73.1599 31.836 72.7039 32.316C72.2599 32.784 72.0259 33.474 72.0019 34.386C71.9899 34.566 71.9839 34.794 71.9839 35.07C71.9839 35.346 71.9899 35.574 72.0019 35.754C72.0259 36.666 72.2599 37.362 72.7039 37.842C73.1599 38.31 73.7599 38.544 74.5039 38.544ZM84.8398 43.71C84.0238 43.71 83.3518 43.602 82.8238 43.386C82.3078 43.17 81.8998 42.906 81.5998 42.594C81.3118 42.294 81.1018 41.988 80.9698 41.676C80.8498 41.376 80.7838 41.136 80.7718 40.956C80.7598 40.836 80.7958 40.734 80.8798 40.65C80.9758 40.566 81.0778 40.524 81.1858 40.524H82.0498C82.1578 40.524 82.2478 40.548 82.3198 40.596C82.3918 40.644 82.4518 40.746 82.4998 40.902C82.5718 41.082 82.6798 41.28 82.8238 41.496C82.9678 41.724 83.1898 41.916 83.4898 42.072C83.7898 42.24 84.2098 42.324 84.7498 42.324C85.3138 42.324 85.7878 42.246 86.1718 42.09C86.5558 41.946 86.8438 41.682 87.0358 41.298C87.2398 40.926 87.3418 40.41 87.3418 39.75V38.526C87.0538 38.898 86.6758 39.21 86.2078 39.462C85.7398 39.702 85.1518 39.822 84.4438 39.822C83.7718 39.822 83.1958 39.708 82.7158 39.48C82.2358 39.24 81.8398 38.922 81.5278 38.526C81.2278 38.118 80.9998 37.656 80.8438 37.14C80.6998 36.624 80.6158 36.084 80.5918 35.52C80.5798 35.184 80.5798 34.854 80.5918 34.53C80.6158 33.966 80.6998 33.426 80.8438 32.91C80.9998 32.394 81.2278 31.932 81.5278 31.524C81.8398 31.116 82.2358 30.798 82.7158 30.57C83.1958 30.33 83.7718 30.21 84.4438 30.21C85.1638 30.21 85.7578 30.348 86.2258 30.624C86.7058 30.888 87.0958 31.212 87.3958 31.596V30.822C87.3958 30.702 87.4318 30.6 87.5038 30.516C87.5878 30.432 87.6898 30.39 87.8098 30.39H88.6378C88.7578 30.39 88.8598 30.432 88.9438 30.516C89.0278 30.6 89.0698 30.702 89.0698 30.822V39.552C89.0698 40.356 88.9318 41.07 88.6558 41.694C88.3918 42.318 87.9478 42.81 87.3238 43.17C86.7118 43.53 85.8838 43.71 84.8398 43.71ZM84.8038 38.382C85.4038 38.382 85.8838 38.244 86.2438 37.968C86.6158 37.692 86.8858 37.344 87.0538 36.924C87.2338 36.504 87.3298 36.078 87.3418 35.646C87.3538 35.478 87.3598 35.274 87.3598 35.034C87.3598 34.782 87.3538 34.572 87.3418 34.404C87.3298 33.972 87.2338 33.546 87.0538 33.126C86.8858 32.706 86.6158 32.358 86.2438 32.082C85.8838 31.806 85.4038 31.668 84.8038 31.668C84.2038 31.668 83.7238 31.806 83.3638 32.082C83.0038 32.346 82.7458 32.7 82.5898 33.144C82.4338 33.576 82.3438 34.044 82.3198 34.548C82.3078 34.86 82.3078 35.178 82.3198 35.502C82.3438 36.006 82.4338 36.48 82.5898 36.924C82.7458 37.356 83.0038 37.71 83.3638 37.986C83.7238 38.25 84.2038 38.382 84.8038 38.382ZM92.1781 39.75C92.0581 39.75 91.9561 39.714 91.8721 39.642C91.8001 39.558 91.7641 39.456 91.7641 39.336V27.384C91.7641 27.264 91.8001 27.168 91.8721 27.096C91.9561 27.012 92.0581 26.97 92.1781 26.97H93.0241C93.1561 26.97 93.2581 27.012 93.3301 27.096C93.4021 27.168 93.4381 27.264 93.4381 27.384V39.336C93.4381 39.456 93.4021 39.558 93.3301 39.642C93.2581 39.714 93.1561 39.75 93.0241 39.75H92.1781ZM99.849 39.93C98.613 39.93 97.629 39.552 96.897 38.796C96.165 38.028 95.763 36.984 95.691 35.664C95.679 35.508 95.673 35.31 95.673 35.07C95.673 34.818 95.679 34.614 95.691 34.458C95.739 33.606 95.937 32.862 96.285 32.226C96.633 31.578 97.107 31.08 97.707 30.732C98.319 30.384 99.033 30.21 99.849 30.21C100.761 30.21 101.523 30.402 102.135 30.786C102.759 31.17 103.233 31.716 103.557 32.424C103.881 33.132 104.043 33.96 104.043 34.908V35.214C104.043 35.346 104.001 35.448 103.917 35.52C103.845 35.592 103.749 35.628 103.629 35.628H97.401C97.401 35.64 97.401 35.664 97.401 35.7C97.401 35.736 97.401 35.766 97.401 35.79C97.425 36.282 97.533 36.744 97.725 37.176C97.917 37.596 98.193 37.938 98.553 38.202C98.913 38.466 99.345 38.598 99.849 38.598C100.281 38.598 100.641 38.532 100.929 38.4C101.217 38.268 101.451 38.124 101.631 37.968C101.811 37.8 101.931 37.674 101.991 37.59C102.099 37.434 102.183 37.344 102.243 37.32C102.303 37.284 102.399 37.266 102.531 37.266H103.395C103.515 37.266 103.611 37.302 103.683 37.374C103.767 37.434 103.803 37.524 103.791 37.644C103.779 37.824 103.683 38.046 103.503 38.31C103.323 38.562 103.065 38.814 102.729 39.066C102.393 39.318 101.985 39.528 101.505 39.696C101.025 39.852 100.473 39.93 99.849 39.93ZM97.401 34.386H102.333V34.332C102.333 33.792 102.231 33.312 102.027 32.892C101.835 32.472 101.553 32.142 101.181 31.902C100.809 31.65 100.365 31.524 99.849 31.524C99.333 31.524 98.889 31.65 98.517 31.902C98.157 32.142 97.881 32.472 97.689 32.892C97.497 33.312 97.401 33.792 97.401 34.332V34.386ZM111.255 39.75C111.123 39.75 111.021 39.714 110.949 39.642C110.877 39.558 110.841 39.456 110.841 39.336V27.582C110.841 27.45 110.877 27.348 110.949 27.276C111.021 27.192 111.123 27.15 111.255 27.15H115.827C116.715 27.15 117.483 27.294 118.131 27.582C118.791 27.87 119.301 28.302 119.661 28.878C120.021 29.442 120.201 30.15 120.201 31.002C120.201 31.854 120.021 32.562 119.661 33.126C119.301 33.69 118.791 34.116 118.131 34.404C117.483 34.692 116.715 34.836 115.827 34.836H112.641V39.336C112.641 39.456 112.599 39.558 112.515 39.642C112.443 39.714 112.341 39.75 112.209 39.75H111.255ZM112.623 33.324H115.737C116.625 33.324 117.291 33.126 117.735 32.73C118.179 32.334 118.401 31.758 118.401 31.002C118.401 30.258 118.185 29.682 117.753 29.274C117.321 28.866 116.649 28.662 115.737 28.662H112.623V33.324ZM122.588 39.75C122.468 39.75 122.366 39.714 122.282 39.642C122.21 39.558 122.174 39.456 122.174 39.336V27.384C122.174 27.264 122.21 27.168 122.282 27.096C122.366 27.012 122.468 26.97 122.588 26.97H123.434C123.566 26.97 123.668 27.012 123.74 27.096C123.812 27.168 123.848 27.264 123.848 27.384V39.336C123.848 39.456 123.812 39.558 123.74 39.642C123.668 39.714 123.566 39.75 123.434 39.75H122.588ZM129.143 39.93C128.543 39.93 127.997 39.81 127.505 39.57C127.013 39.33 126.617 39.006 126.317 38.598C126.017 38.19 125.867 37.728 125.867 37.212C125.867 36.384 126.203 35.724 126.875 35.232C127.547 34.74 128.423 34.416 129.503 34.26L132.185 33.882V33.36C132.185 32.784 132.017 32.334 131.681 32.01C131.357 31.686 130.823 31.524 130.079 31.524C129.539 31.524 129.101 31.632 128.765 31.848C128.441 32.064 128.213 32.34 128.081 32.676C128.009 32.856 127.883 32.946 127.703 32.946H126.893C126.761 32.946 126.659 32.91 126.587 32.838C126.527 32.754 126.497 32.658 126.497 32.55C126.497 32.37 126.563 32.148 126.695 31.884C126.839 31.62 127.055 31.362 127.343 31.11C127.631 30.858 127.997 30.648 128.441 30.48C128.897 30.3 129.449 30.21 130.097 30.21C130.817 30.21 131.423 30.306 131.915 30.498C132.407 30.678 132.791 30.924 133.067 31.236C133.355 31.548 133.559 31.902 133.679 32.298C133.811 32.694 133.877 33.096 133.877 33.504V39.336C133.877 39.456 133.835 39.558 133.751 39.642C133.679 39.714 133.583 39.75 133.463 39.75H132.635C132.503 39.75 132.401 39.714 132.329 39.642C132.257 39.558 132.221 39.456 132.221 39.336V38.562C132.065 38.778 131.855 38.994 131.591 39.21C131.327 39.414 130.997 39.588 130.601 39.732C130.205 39.864 129.719 39.93 129.143 39.93ZM129.521 38.58C130.013 38.58 130.463 38.478 130.871 38.274C131.279 38.058 131.597 37.728 131.825 37.284C132.065 36.84 132.185 36.282 132.185 35.61V35.106L130.097 35.412C129.245 35.532 128.603 35.736 128.171 36.024C127.739 36.3 127.523 36.654 127.523 37.086C127.523 37.422 127.619 37.704 127.811 37.932C128.015 38.148 128.267 38.31 128.567 38.418C128.879 38.526 129.197 38.58 129.521 38.58ZM137.909 43.17C137.813 43.17 137.729 43.134 137.657 43.062C137.585 42.99 137.549 42.906 137.549 42.81C137.549 42.762 137.555 42.714 137.567 42.666C137.579 42.618 137.603 42.558 137.639 42.486L139.025 39.192L135.587 31.074C135.527 30.93 135.497 30.828 135.497 30.768C135.497 30.66 135.533 30.57 135.605 30.498C135.677 30.426 135.767 30.39 135.875 30.39H136.757C136.877 30.39 136.973 30.42 137.045 30.48C137.117 30.54 137.165 30.612 137.189 30.696L139.925 37.248L142.733 30.696C142.769 30.612 142.817 30.54 142.877 30.48C142.949 30.42 143.051 30.39 143.183 30.39H144.029C144.137 30.39 144.227 30.426 144.299 30.498C144.371 30.57 144.407 30.654 144.407 30.75C144.407 30.81 144.377 30.918 144.317 31.074L139.205 42.864C139.169 42.948 139.115 43.02 139.043 43.08C138.983 43.14 138.887 43.17 138.755 43.17H137.909Z" fill="white"/>
<rect x="1.25" y="1.25" width="158.13" height="52" rx="4.5" stroke="white" stroke-opacity="0.13"/>
<defs>
<clipPath id="clip0_4_184">
<rect width="24" height="24" fill="white" transform="translate(13.75 15.25)"/>
</clipPath>
</defs>
</svg>
