<svg width="19" height="19" viewBox="0 0 19 19" fill="none" xmlns="http://www.w3.org/2000/svg">
<path d="M14.2607 10.6158H0.760742C0.538086 10.6158 0.356445 10.5455 0.21582 10.4049C0.0751953 10.2643 0.00488281 10.0826 0.00488281 9.85999C0.00488281 9.63733 0.0751953 9.45569 0.21582 9.31506C0.356445 9.17444 0.538086 9.10413 0.760742 9.10413H14.2607C14.4834 9.10413 14.665 9.17444 14.8057 9.31506C14.9463 9.45569 15.0166 9.63733 15.0166 9.85999C15.0166 10.0826 14.9463 10.2643 14.8057 10.4049C14.665 10.5455 14.4834 10.6158 14.2607 10.6158ZM14.2607 6.11584H0.760742C0.538086 6.11584 0.356445 6.04553 0.21582 5.90491C0.0751953 5.76428 0.00488281 5.58264 0.00488281 5.35999C0.00488281 5.13733 0.0751953 4.95569 0.21582 4.81506C0.356445 4.67444 0.538086 4.60413 0.760742 4.60413H14.2607C14.4834 4.60413 14.665 4.67444 14.8057 4.81506C14.9463 4.95569 15.0166 5.13733 15.0166 5.35999C15.0166 5.58264 14.9463 5.76428 14.8057 5.90491C14.665 6.04553 14.4834 6.11584 14.2607 6.11584ZM14.2607 15.1158H0.760742C0.538086 15.1158 0.356445 15.0455 0.21582 14.9049C0.0751953 14.7643 0.00488281 14.5826 0.00488281 14.36C0.00488281 14.1373 0.0751953 13.9557 0.21582 13.8151C0.356445 13.6744 0.538086 13.6041 0.760742 13.6041H14.2607C14.4834 13.6041 14.665 13.6744 14.8057 13.8151C14.9463 13.9557 15.0166 14.1373 15.0166 14.36C15.0166 14.5826 14.9463 14.7643 14.8057 14.9049C14.665 15.0455 14.4834 15.1158 14.2607 15.1158Z" fill="white"/>
</svg>
