<svg width="48" height="48" viewBox="0 0 48 48" fill="none" xmlns="http://www.w3.org/2000/svg">
<path d="M21.9844 44.2409C21.9844 45.2728 21.5938 46.1573 20.8125 46.8944C20.0312 47.6315 19.0938 48 18 48C16.9062 48 15.9688 47.6315 15.1875 46.8944C14.4062 46.1573 14.0156 45.2728 14.0156 44.2409C14.0156 43.209 14.4062 42.3245 15.1875 41.5874C15.9688 40.8503 16.9062 40.4818 18 40.4818C19.0938 40.4818 20.0312 40.8503 20.8125 41.5874C21.5938 42.3245 21.9844 43.209 21.9844 44.2409ZM44.0156 44.2409C44.0156 45.2728 43.625 46.1573 42.8438 46.8944C42.0625 47.6315 41.1094 48 39.9844 48C38.8906 48 37.9531 47.6315 37.1719 46.8944C36.3906 46.1573 36 45.2728 36 44.2409C36 43.209 36.3906 42.3245 37.1719 41.5874C37.9531 40.8503 38.8906 40.4818 39.9844 40.4818C41.1094 40.4818 42.0625 40.8503 42.8438 41.5874C43.625 42.3245 44.0156 43.209 44.0156 44.2409ZM19.2188 36.6784C17.8125 36.6784 16.5625 36.2583 15.4688 35.418C14.375 34.5777 13.6875 33.4942 13.4062 32.1675L9.98438 16.335C9.98438 16.335 9.98438 16.2981 9.98438 16.2244C9.98438 16.1507 9.98438 16.1139 9.98438 16.1139L8.39062 8.3745H2.01562C1.39062 8.3745 0.898438 8.20497 0.539062 7.86591C0.179688 7.52686 0 7.07724 0 6.51706C0 5.92739 0.179688 5.46303 0.539062 5.12397C0.898438 4.78491 1.39062 4.61538 2.01562 4.61538H9.98438C10.4844 4.61538 10.9219 4.74806 11.2969 5.01341C11.6719 5.27876 11.9062 5.6473 12 6.11903L13.5938 14.0353H45.9844C46.2969 14.0353 46.5938 14.0943 46.875 14.2122C47.1562 14.3301 47.3906 14.5218 47.5781 14.7871C47.7969 14.9935 47.9219 15.2294 47.9531 15.4947C47.9844 15.7601 48 16.0401 48 16.335L44.8125 32.1675C44.5 33.4942 43.7734 34.5777 42.6328 35.418C41.4922 36.2583 40.2188 36.6784 38.8125 36.6784H19.2188C19.3125 36.6784 19.3359 36.6784 19.2891 36.6784C19.2422 36.6784 19.2188 36.6784 19.2188 36.6784ZM14.3906 17.8386L17.2031 31.4157C17.2969 31.8874 17.5312 32.2559 17.9062 32.5213C18.2812 32.7866 18.7188 32.9193 19.2188 32.9193H38.5781C39.0781 32.9193 39.5156 32.7866 39.8906 32.5213C40.2656 32.2559 40.5 31.8874 40.5938 31.4157L43.5938 17.8386H14.3906Z" fill="white"/>
</svg>
