<svg width="12" height="13" viewBox="0 0 12 13" fill="none" xmlns="http://www.w3.org/2000/svg">
<path id="Vector" d="M5.9541 12.3484C5.73405 12.3484 5.53092 12.3082 5.34473 12.2278C5.15853 12.1474 4.98079 12.0268 4.81152 11.866L0.152344 7.20679C0.101562 7.14754 0.0634766 7.09041 0.0380859 7.0354C0.0126953 6.98039 0 6.91056 0 6.82593V1.40503C0 1.24422 0.0486654 1.11515 0.145996 1.01782C0.243327 0.920491 0.372396 0.871826 0.533203 0.871826H5.9541C6.03874 0.871826 6.10856 0.884521 6.16357 0.909912C6.21859 0.935303 6.27572 0.973389 6.33496 1.02417L10.9941 5.68335C11.3158 6.01343 11.4766 6.40063 11.4766 6.84497C11.4766 7.28931 11.3158 7.66382 10.9941 7.96851L7.09668 11.866C6.92741 12.0268 6.74967 12.1474 6.56348 12.2278C6.37728 12.3082 6.17415 12.3484 5.9541 12.3484ZM1.0791 6.61011L5.57324 11.1042C5.68327 11.2143 5.81022 11.2693 5.9541 11.2693C6.09798 11.2693 6.22494 11.2143 6.33496 11.1042L10.2324 7.20679C10.3424 7.09676 10.3975 6.96981 10.3975 6.82593C10.3975 6.68205 10.3424 6.55509 10.2324 6.44507L5.73828 1.95093H1.0791V6.61011ZM3.25 4.65503C3.16536 4.65503 3.09342 4.64233 3.03418 4.61694C2.97493 4.59155 2.91992 4.55347 2.86914 4.50269C2.84375 4.46883 2.81836 4.43921 2.79297 4.41382C2.76758 4.38843 2.75488 4.36304 2.75488 4.33765C2.72949 4.31226 2.71468 4.27629 2.71045 4.22974C2.70622 4.18319 2.7041 4.14722 2.7041 4.12183C2.7041 4.08797 2.70622 4.04989 2.71045 4.00757C2.71468 3.96525 2.72949 3.9314 2.75488 3.90601C2.78027 3.87215 2.79932 3.84253 2.81201 3.81714C2.82471 3.79175 2.84375 3.76636 2.86914 3.74097C2.89453 3.71558 2.91992 3.69019 2.94531 3.66479C2.9707 3.6394 3.00033 3.62671 3.03418 3.62671C3.11035 3.60132 3.18018 3.58862 3.24365 3.58862C3.30713 3.58862 3.38118 3.60132 3.46582 3.62671C3.49121 3.6521 3.5166 3.67114 3.54199 3.68384C3.56738 3.69653 3.59701 3.71558 3.63086 3.74097C3.68164 3.79175 3.71973 3.84676 3.74512 3.90601C3.77051 3.96525 3.7832 4.03719 3.7832 4.12183C3.7832 4.198 3.77051 4.26571 3.74512 4.32495C3.71973 4.3842 3.68164 4.44344 3.63086 4.50269C3.57161 4.55347 3.51237 4.59155 3.45312 4.61694C3.39388 4.64233 3.32617 4.65503 3.25 4.65503Z" fill="#999999"/>
</svg>
