<svg width="76" height="76" viewBox="0 0 76 76" fill="none" xmlns="http://www.w3.org/2000/svg">
<g id="Ellipse 3">
<circle id="Ellipse 2" cx="38" cy="38" r="38" fill="#7BD85B" fill-opacity="0.8"/>
<path id="Vector" d="M39.0133 14.44C24.6155 14.44 12.8355 23.8116 12.8355 35.3822C12.9012 38.1641 13.5806 40.8972 14.825 43.3861C16.0695 45.875 17.8483 48.0583 20.0344 49.78C20.0344 51.3507 18.9349 55.4606 12.8355 61.56C19.0396 61.272 24.982 58.9422 29.7725 55.0156C32.7568 55.8794 35.8981 56.3244 39.0133 56.3244C53.4111 56.3244 65.1911 46.9528 65.1911 35.3822C65.1911 23.8116 53.4111 14.44 39.0133 14.44ZM39.0133 51.0889C27.4427 51.0889 18.0711 44.0471 18.0711 35.3822C18.0711 26.7174 27.4427 19.6756 39.0133 19.6756C50.5839 19.6756 59.9555 26.7174 59.9555 35.3822C59.9555 44.0471 50.5839 51.0889 39.0133 51.0889Z" fill="white"/>
</g>
</svg>
