<svg width="299" height="89" viewBox="0 0 299 89" fill="none" xmlns="http://www.w3.org/2000/svg">
<g clip-path="url(#clip0_271_1477)">
<path d="M2.19125 62.804L2.18635 64.5463C2.18631 64.5595 2.18272 64.5725 2.17595 64.5837C2.16918 64.5949 2.1595 64.604 2.14798 64.61L2.05327 64.6588C2.03041 64.6703 2.01898 64.6891 2.01898 64.715L2.02715 65.5088C2.02738 65.521 2.03147 65.5328 2.03882 65.5425C2.04617 65.5522 2.05638 65.5592 2.06797 65.5626L2.41903 65.6593C2.4411 65.6653 2.46064 65.6784 2.47479 65.6965C2.48895 65.7146 2.49698 65.7369 2.49771 65.7601C2.49843 65.7833 2.49183 65.8061 2.47885 65.8254C2.46587 65.8446 2.44719 65.8591 2.42556 65.8669C1.96728 66.0295 1.50845 66.0336 1.04909 65.8793C1.02419 65.871 1.00277 65.8545 0.988256 65.8323C0.973745 65.8101 0.966991 65.7835 0.969079 65.7569C0.973433 65.6963 1.01942 65.6566 1.10705 65.6378C1.20121 65.618 1.29374 65.5918 1.38463 65.5593C1.39644 65.5549 1.40659 65.5469 1.41363 65.5364C1.42067 65.5258 1.42423 65.5133 1.42382 65.5006L1.40749 64.6786C1.40695 64.6549 1.39579 64.6397 1.37402 64.6331C1.29292 64.6067 1.25482 64.5389 1.25972 64.4297C1.27659 64.0548 1.26952 63.5714 1.23849 62.9793C1.23741 62.9572 1.22598 62.9462 1.2042 62.9462H0.701295C0.595161 62.9462 0.542368 62.8922 0.542912 62.7841L0.555158 61.1816C0.555702 61.1501 0.571486 61.1341 0.60251 61.1336L10.2092 60.9905C10.2686 60.99 10.299 60.9597 10.3007 60.8996L10.3333 59.5988C10.3339 59.5724 10.3472 59.5578 10.3733 59.555C10.646 59.5219 11.0754 59.5963 11.2485 59.4723C11.3862 59.3731 11.5163 59.2664 11.6388 59.1523C11.6752 59.1181 11.6687 59.101 11.6192 59.101H10.3472C10.3167 59.101 10.3018 59.0856 10.3023 59.0547L10.3154 58.3882C10.3159 58.3507 10.3344 58.3317 10.3709 58.3312C13.3345 58.26 16.2969 58.2622 19.2583 58.3378C19.6331 58.3469 19.9703 58.3907 20.0192 57.983C20.0641 57.6126 19.7694 57.5605 19.4682 57.5505C18.0901 57.507 16.7103 57.4654 15.3289 57.4257C15.2974 57.4246 15.2759 57.4089 15.2645 57.3785L14.8154 56.1704C14.8045 56.1406 14.7836 56.126 14.7526 56.1266L9.72755 56.1357C9.69761 56.1357 9.68264 56.1208 9.68264 56.091C9.68428 54.8043 9.69788 53.5196 9.72346 52.2367C9.73163 51.8324 9.8647 51.4446 10.2901 51.4057C10.8496 51.3555 12.041 51.2949 13.8643 51.2238C13.8932 51.2227 13.9136 51.2089 13.9255 51.1824C14.1373 50.7138 14.3411 50.2411 14.537 49.7643C14.7224 49.3144 14.7019 48.7513 14.7403 48.2692C14.7713 47.8814 15.1502 47.8747 15.449 47.8359C15.4756 47.8326 15.4979 47.8213 15.5159 47.802C26.3181 36.4136 37.1239 25.0283 47.9332 13.646C48.5384 13.0082 49.1469 12.3756 49.7587 11.7482C49.762 11.7448 49.766 11.7422 49.7705 11.7406C49.775 11.739 49.7797 11.7386 49.7844 11.7392C49.7891 11.7399 49.7936 11.7416 49.7975 11.7443C49.8014 11.747 49.8046 11.7506 49.8068 11.7548L50.5539 13.087C50.574 13.1228 50.6048 13.1413 50.6461 13.1424C51.4184 13.1534 52.1995 13.1457 52.9892 13.1193C53.1231 13.1148 53.2554 13.1248 53.386 13.149C53.4132 13.1545 53.4358 13.1678 53.4538 13.1887C53.9316 13.7389 54.4092 14.2888 54.8866 14.8384C55.0278 15.0005 55.0515 15.0757 55.258 14.9666C55.2805 14.9547 55.3 14.9378 55.3151 14.9171C55.3301 14.8965 55.3404 14.8726 55.345 14.8474C55.3497 14.8221 55.3486 14.7962 55.3418 14.7714C55.3351 14.7466 55.3229 14.7237 55.3062 14.7045L53.6081 12.743C53.5896 12.7215 53.5664 12.7108 53.5387 12.7108H50.8665C50.8317 12.7108 50.8059 12.6953 50.789 12.6644L50.113 11.4497C50.0983 11.4238 50.1016 11.4004 50.1228 11.3794L51.6977 9.8124C51.7194 9.79034 51.7439 9.78676 51.7711 9.80165C52.1116 9.98853 52.4659 10.2192 52.8578 10.244C53.0853 10.2589 53.3128 10.2592 53.5403 10.2449C53.5713 10.2427 53.5806 10.2272 53.5681 10.1986L53.2545 9.46757C53.2464 9.44772 53.2475 9.42843 53.2578 9.40968L53.7575 8.50834C53.7675 8.49116 53.7718 8.47086 53.7697 8.45046L53.7101 7.87575C53.7091 7.86487 53.7104 7.85384 53.7141 7.84342C53.7178 7.833 53.7237 7.82343 53.7313 7.81538L55.1682 6.32527C55.1781 6.31503 55.1902 6.30729 55.2035 6.30269C55.2169 6.29809 55.2311 6.29676 55.245 6.29881L55.7781 6.37571C55.8086 6.38012 55.8352 6.39253 55.8581 6.41292C56.1308 6.65659 56.3515 6.94132 56.5202 7.26713C56.535 7.29542 56.5396 7.32815 56.5333 7.35975L56.3128 8.46865C56.3063 8.50062 56.3142 8.52846 56.3365 8.55217C56.5667 8.79528 56.7945 8.97886 56.9194 9.30384C57.117 9.81984 57.3358 10.3259 57.5758 10.8221C57.5823 10.8355 57.5919 10.8471 57.6037 10.8557C57.6156 10.8644 57.6293 10.8699 57.6436 10.8717L59.2723 11.0825C59.3034 11.0865 59.3348 11.0794 59.3613 11.0625C59.3878 11.0456 59.4077 11.02 59.4176 10.9899C59.4846 10.784 59.4201 10.6906 59.2135 10.6641C58.7765 10.6068 58.34 10.5478 57.904 10.4872C57.8773 10.4833 57.858 10.469 57.8461 10.4442C57.63 9.98219 57.4305 9.51498 57.2476 9.04253C57.1431 8.77213 56.9741 8.63486 56.7847 8.43144C56.7744 8.4205 56.7668 8.40718 56.7627 8.39263C56.7586 8.37809 56.758 8.36274 56.761 8.34792L56.9684 7.29277C56.9739 7.2663 56.9706 7.24067 56.9586 7.21586C56.7409 6.76326 56.4443 6.37213 56.0687 6.04246C56.0587 6.03368 56.0508 6.02261 56.0458 6.01017C56.0408 5.99773 56.0388 5.98427 56.0399 5.97088C56.041 5.95749 56.0453 5.94457 56.0523 5.93315C56.0593 5.92173 56.0688 5.91215 56.0802 5.90519C56.2002 5.83242 56.2018 5.70756 56.174 5.57112C56.1256 5.33186 56.0908 5.09068 56.0695 4.84756C56.0668 4.81614 56.0769 4.78968 56.0997 4.76818L57.7611 3.23755C57.767 3.23208 57.7739 3.22795 57.7814 3.22542C57.789 3.22289 57.7969 3.22203 57.8048 3.22289C57.8127 3.22375 57.8203 3.22632 57.8272 3.23041C57.834 3.23451 57.8399 3.24005 57.8444 3.24664L58.38 4.02477C58.3977 4.05033 58.4211 4.07124 58.4484 4.08577C58.4756 4.10029 58.5059 4.10802 58.5367 4.10829C58.878 4.1116 59.296 4.07356 59.6217 4.22076C61.5224 5.08296 63.4221 5.94709 65.3211 6.81315C65.7685 7.0174 66.1833 7.50611 66.5359 7.85011C66.5561 7.86996 66.5561 7.8898 66.5359 7.90965L66.2486 8.20155C66.2256 8.22479 66.2127 8.25632 66.2126 8.28921L66.1914 13.5137C66.1914 13.5282 66.1956 13.5424 66.2034 13.5546C66.2113 13.5668 66.2224 13.5764 66.2355 13.5823C66.5626 13.7257 66.7262 13.9586 66.7262 14.2811C66.7251 15.5016 66.7248 16.7213 66.7253 17.9402C66.7253 18.2677 66.555 18.4896 66.2143 18.6059C66.2017 18.6102 66.1908 18.6185 66.1831 18.6293C66.1755 18.6402 66.1715 18.6531 66.1718 18.6662L66.1792 19.2037C66.1797 19.2209 66.1857 19.2375 66.1963 19.2509C66.5041 19.6412 66.0036 19.9017 65.8004 20.1547C65.7913 20.1659 65.785 20.1792 65.782 20.1933C65.779 20.2074 65.7794 20.2219 65.7832 20.2357C65.8796 20.6045 66.2404 20.2845 66.2853 20.0761C66.2903 20.0548 66.3029 20.036 66.3207 20.0234C66.3385 20.0107 66.3602 20.0051 66.3817 20.0075C66.4033 20.01 66.4232 20.0203 66.4378 20.0366C66.4524 20.0529 66.4606 20.074 66.4608 20.096C66.4445 21.1272 64.8403 20.7228 65.6297 19.7569C65.6385 19.7463 65.6447 19.7336 65.6477 19.7201C65.6507 19.7066 65.6504 19.6926 65.6469 19.6792C65.6118 19.5428 65.6003 19.4675 65.6779 19.3369C65.802 19.1257 65.8311 18.8928 65.7652 18.6381C65.7587 18.6128 65.744 18.5946 65.7212 18.5835C65.4278 18.4468 65.2806 18.2238 65.2795 17.9146C65.2751 16.7519 65.2743 15.589 65.277 14.4258C65.2781 14.0189 65.4343 13.735 65.7457 13.5741C65.7685 13.5619 65.7799 13.5432 65.7799 13.5178L65.8134 8.75807C65.8134 8.74832 65.8101 8.73888 65.804 8.73129C65.798 8.7237 65.7896 8.71841 65.7802 8.7163C65.7708 8.71418 65.7609 8.71537 65.7523 8.71965C65.7437 8.72394 65.7367 8.73107 65.7326 8.73988C65.6558 8.90912 65.6077 9.08884 65.5881 9.27903C65.586 9.29935 65.577 9.31832 65.5628 9.33278C65.384 9.50891 64.9301 10.0233 64.7113 10.0745C64.5463 10.1126 64.3659 10.0671 64.2353 10.2126C64.1022 10.3606 63.9561 10.4954 63.8222 10.6426C63.814 10.6517 63.8077 10.6624 63.8037 10.6741C63.7998 10.6858 63.7983 10.6981 63.7993 10.7104L63.8418 11.3248C63.8426 11.3337 63.8416 11.3427 63.8389 11.3512C63.8362 11.3597 63.832 11.3676 63.8263 11.3744C63.4924 11.8011 63.0874 12.4511 63.0907 13.0109C63.1076 15.9426 63.1304 18.8746 63.1593 21.8069C63.1617 22.0368 63.1193 22.0806 63.2801 22.2642C63.6584 22.6942 64.0312 23.1286 64.3986 23.5674C64.4171 23.5889 64.4203 23.6126 64.4084 23.6385C63.8401 24.8916 63.273 26.1427 62.707 27.3919C62.5665 27.7028 62.5037 27.9418 62.2416 28.1502C61.8538 28.4578 61.0162 29.1185 61.0725 29.675C61.1248 30.1844 61.7101 30.2969 62.1126 30.1274C62.5829 29.9289 62.876 29.3988 62.9543 28.9052C62.9592 28.8726 62.978 28.8564 63.0107 28.8564H63.5805C63.5915 28.8564 63.6021 28.8607 63.61 28.8684C63.6179 28.8761 63.6226 28.8866 63.623 28.8977C63.6654 30.0347 63.2099 31.08 62.0196 31.3198C61.1411 31.4967 60.0471 31.1354 59.6854 30.2192C59.2805 29.1921 60.0789 28.2188 60.6684 27.4862C60.6858 27.4647 60.6893 27.4407 60.679 27.4142L59.1548 23.5335C59.145 23.5087 59.1488 23.4864 59.1662 23.4665L60.2218 22.2542C60.2392 22.2339 60.2479 22.2104 60.2479 22.184L60.2128 15.0741C60.2127 15.0688 60.2111 15.0636 60.2082 15.0592C60.2053 15.0548 60.2012 15.0513 60.1964 15.0492C60.1916 15.047 60.1863 15.0463 60.1812 15.047C60.176 15.0478 60.1711 15.05 60.1671 15.0534L55.3878 19.3038C55.3672 19.322 55.3568 19.3451 55.3568 19.3733V20.1092C55.3568 20.1391 55.3505 20.1687 55.3382 20.1959C55.326 20.2232 55.3081 20.2474 55.2858 20.2672C49.4495 25.4442 43.6076 30.6271 37.7599 35.8158C37.6347 35.926 37.5313 36.0539 37.4496 36.1994C36.2441 38.339 35.0401 40.4782 33.8378 42.6172C33.8188 42.6514 33.8259 42.6781 33.8591 42.6974L34.077 42.8256C34.0965 42.8373 34.111 42.8558 34.1179 42.8777C34.1434 42.9609 34.1268 43.0554 34.0681 43.1613C33.145 44.8234 32.2322 46.4615 31.3298 48.0757C31.289 48.1484 31.3099 48.1846 31.3927 48.184C31.9516 48.1813 32.5016 48.1862 33.0426 48.1989C33.6688 48.2129 34.0738 48.4536 34.535 48.9142C36.1083 50.4853 36.7638 52.8702 36.8251 55.0367C36.8257 55.0663 36.8379 55.0945 36.8589 55.1152C36.88 55.1359 36.9083 55.1475 36.9377 55.1475L43.7213 55.126C43.7282 55.126 43.7349 55.1278 43.7409 55.1313C43.7468 55.1349 43.7517 55.1399 43.755 55.146C43.7584 55.1521 43.76 55.159 43.7598 55.1659C43.7596 55.1729 43.7576 55.1797 43.754 55.1856C43.545 55.5229 43.6225 56.5665 43.6209 56.9899C43.6152 58.1939 45.1378 58.2559 45.1492 56.9709C45.153 56.5574 45.1549 56.1439 45.1549 55.7305C45.1549 55.2663 44.9418 54.9711 44.5157 54.8449C44.489 54.8366 44.4781 54.8187 44.483 54.7911C44.7954 53.0309 45.0229 51.8762 45.1655 51.3271C45.3223 50.7227 45.7591 50.6854 46.3559 50.6209C48.6135 50.3778 50.8565 50.1433 53.0847 49.9172C53.1577 49.9095 53.1939 49.8687 53.1933 49.7949L53.1925 49.2813C53.1925 49.2472 53.2091 49.2287 53.2423 49.2259C53.8579 49.1763 54.4729 49.138 55.0874 49.111C55.8899 49.0763 56.7251 49.2607 57.5211 49.3748C57.5379 49.3773 57.5532 49.3858 57.5643 49.3987C57.5754 49.4116 57.5815 49.4281 57.5815 49.4451V49.7353C57.5815 49.7607 57.5941 49.7745 57.6191 49.7767C58.3735 49.8552 59.0299 49.9644 59.3964 50.7318C59.5749 51.1055 59.7434 51.4845 59.9018 51.8688C60.7753 53.9923 61.6015 56.1349 62.3804 58.2964C62.3897 58.3229 62.3916 58.3502 62.3861 58.3783L62.1183 59.7005C62.1047 59.7679 62.1173 59.8378 62.1534 59.8957L62.4563 60.3819C62.4716 60.4067 62.4776 60.4335 62.4743 60.4621L62.1306 63.5838C62.1268 63.6179 62.108 63.6364 62.0743 63.6392L52.6275 64.3834C52.6238 64.3838 52.6201 64.385 52.6168 64.3869C52.6135 64.3888 52.6106 64.3914 52.6084 64.3945C52.6061 64.3977 52.6046 64.4012 52.6038 64.405C52.603 64.4088 52.6031 64.4127 52.6039 64.4165C53.4578 68.3923 48.2181 70.1586 46.52 66.3391C46.5069 66.3098 46.487 66.3041 46.4604 66.3217C45.9792 66.6475 45.4483 66.8305 44.8675 66.8708C44.8432 66.8724 44.8201 66.8826 44.8022 66.8997C43.6881 67.9449 42.4221 68.1519 41.0043 67.5207C40.9744 67.5075 40.9539 67.5169 40.9431 67.5488C40.5406 68.7719 39.6474 69.942 38.3216 70.1785C36.0748 70.5803 34.6379 68.1442 34.4305 66.2175C34.4297 66.2099 34.4263 66.2027 34.4208 66.1974C34.4153 66.192 34.4081 66.1888 34.4006 66.1883C34.3931 66.1878 34.3857 66.19 34.3798 66.1946C34.3739 66.1992 34.3699 66.2059 34.3685 66.2134C34.1399 67.2619 33.4304 68.4295 32.4507 68.8322C30.5118 69.6302 28.9353 67.9003 28.5173 66.1712C28.5137 66.1558 28.5049 66.1421 28.4925 66.1326C28.4802 66.1231 28.4649 66.1183 28.4495 66.1191L21.6945 66.3953C21.6662 66.3964 21.6425 66.3865 21.6235 66.3655L21.0749 65.7511C21.0665 65.7418 21.056 65.7348 21.0442 65.7308C21.0324 65.7268 21.0198 65.7259 21.0076 65.7283C20.9954 65.7306 20.984 65.736 20.9745 65.7441C20.965 65.7521 20.9577 65.7625 20.9532 65.7743C20.7023 66.4524 20.2726 66.9532 19.6641 67.2768C18.2737 68.0169 16.9079 67.0527 16.3454 65.785C16.3423 65.7781 16.337 65.7724 16.3303 65.7688C16.3237 65.7652 16.3161 65.7639 16.3087 65.7651C16.3012 65.7663 16.2944 65.77 16.2893 65.7756C16.2841 65.7811 16.2809 65.7882 16.2801 65.7958L16.2433 66.1778C16.2406 66.207 16.2278 66.2307 16.205 66.2489C14.7787 67.381 13.1932 66.4176 12.5229 64.987C12.5055 64.9496 12.4764 64.9308 12.4356 64.9308H10.2492C10.2215 64.9308 10.2073 64.9449 10.2068 64.973L10.2019 67.2387C10.2013 67.2608 10.1924 67.2787 10.1749 67.2925L10.068 67.3752C10.0551 67.3849 10.0446 67.3977 10.0374 67.4125C10.0301 67.4273 10.0264 67.4437 10.0264 67.4604L10.0255 68.2145C10.0255 68.252 10.0432 68.2754 10.0786 68.2848L10.4256 68.3799C10.4475 68.3857 10.467 68.3985 10.4812 68.4163C10.4954 68.4341 10.5037 68.4561 10.5048 68.4791C10.5058 68.502 10.4997 68.5248 10.4872 68.5442C10.4748 68.5635 10.4566 68.5784 10.4354 68.5866C9.96512 68.7652 9.4946 68.7633 9.0238 68.5808C9.00867 68.575 8.99538 68.5651 8.98535 68.5522C8.97532 68.5393 8.96891 68.5239 8.96682 68.5076C8.96473 68.4913 8.96702 68.4748 8.97346 68.4597C8.9799 68.4447 8.99024 68.4317 9.00339 68.4221C9.10136 68.351 9.21212 68.3115 9.33567 68.3038C9.3662 68.3019 9.39482 68.2881 9.41552 68.2653C9.43622 68.2425 9.44739 68.2124 9.4467 68.1814L9.42792 67.4405C9.42738 67.4179 9.4184 67.3994 9.40098 67.3851L9.2973 67.3024C9.27934 67.2881 9.27036 67.2693 9.27036 67.2462V64.9722C9.27036 64.9446 9.25675 64.9308 9.22954 64.9308H8.7601C8.73288 64.9308 8.71928 64.917 8.71928 64.8895V63.7111C8.71928 63.683 8.73288 63.6689 8.7601 63.6689L12.0739 63.6549C12.0962 63.6549 12.1074 63.6436 12.1074 63.621V63.5201C12.1074 63.4826 12.0889 63.4636 12.0519 63.463C9.23416 63.4333 6.41645 63.4167 3.59874 63.4134C3.25585 63.4134 2.57496 62.9363 2.24921 62.7684C2.21111 62.7486 2.19179 62.7604 2.19125 62.804ZM58.5604 5.1097C58.5604 4.98337 58.5109 4.86222 58.4227 4.7729C58.3345 4.68357 58.2149 4.63339 58.0902 4.63339C57.9654 4.63339 57.8458 4.68357 57.7576 4.7729C57.6694 4.86222 57.6199 4.98337 57.6199 5.1097C57.6199 5.23602 57.6694 5.35717 57.7576 5.4465C57.8458 5.53582 57.9654 5.586 58.0902 5.586C58.2149 5.586 58.3345 5.53582 58.4227 5.4465C58.5109 5.35717 58.5604 5.23602 58.5604 5.1097ZM64.4329 6.84788L59.9124 4.78802C59.907 4.78579 59.901 4.78533 59.8954 4.78672C59.8897 4.7881 59.8846 4.79127 59.8808 4.79575C59.877 4.80024 59.8747 4.80582 59.8742 4.8117C59.8737 4.81759 59.8751 4.82348 59.8781 4.82854L62.2277 8.66463C62.2302 8.66862 62.2336 8.67205 62.2374 8.67471C62.2413 8.67737 62.2457 8.67922 62.2503 8.68015C62.255 8.68107 62.2598 8.68105 62.2644 8.68009C62.2691 8.67913 62.2736 8.67725 62.2775 8.67455C62.6866 8.39423 63.1274 8.16351 63.4826 7.82613C63.8069 7.51741 64.1259 7.20429 64.4394 6.88675C64.4421 6.88404 64.4442 6.8807 64.4454 6.87701C64.4465 6.87332 64.4468 6.8694 64.4462 6.86558C64.4455 6.86176 64.444 6.85816 64.4417 6.85507C64.4394 6.85199 64.4363 6.84952 64.4329 6.84788ZM65.6632 7.79305C65.6632 7.71015 65.6307 7.63065 65.5728 7.57203C65.5149 7.51341 65.4364 7.48048 65.3546 7.48048C65.3141 7.48048 65.2739 7.48856 65.2365 7.50427C65.1991 7.51998 65.165 7.543 65.1364 7.57203C65.1077 7.60105 65.085 7.63551 65.0695 7.67344C65.054 7.71136 65.046 7.75201 65.046 7.79305C65.046 7.8341 65.054 7.87475 65.0695 7.91267C65.085 7.9506 65.1077 7.98505 65.1364 8.01408C65.165 8.0431 65.1991 8.06613 65.2365 8.08184C65.2739 8.09755 65.3141 8.10563 65.3546 8.10563C65.4364 8.10563 65.5149 8.0727 65.5728 8.01408C65.6307 7.95546 65.6632 7.87595 65.6632 7.79305ZM62.8621 11.1801C62.8621 11.0659 62.8173 10.9563 62.7375 10.8755C62.6577 10.7947 62.5495 10.7493 62.4367 10.7493C62.3809 10.7493 62.3256 10.7604 62.274 10.7821C62.2224 10.8037 62.1755 10.8355 62.136 10.8755C62.0965 10.9155 62.0651 10.963 62.0438 11.0153C62.0224 11.0675 62.0114 11.1235 62.0114 11.1801C62.0114 11.2367 62.0224 11.2927 62.0438 11.345C62.0651 11.3973 62.0965 11.4448 62.136 11.4848C62.1755 11.5248 62.2224 11.5565 62.274 11.5782C62.3256 11.5998 62.3809 11.6109 62.4367 11.6109C62.5495 11.6109 62.6577 11.5656 62.7375 11.4848C62.8173 11.404 62.8621 11.2944 62.8621 11.1801ZM60.6814 12.738C60.6814 12.624 60.6367 12.5146 60.5571 12.434C60.4775 12.3533 60.3695 12.308 60.2569 12.308C60.1443 12.308 60.0363 12.3533 59.9567 12.434C59.8771 12.5146 59.8324 12.624 59.8324 12.738C59.8324 12.8521 59.8771 12.9615 59.9567 13.0421C60.0363 13.1227 60.1443 13.168 60.2569 13.168C60.3695 13.168 60.4775 13.1227 60.5571 13.0421C60.6367 12.9615 60.6814 12.8521 60.6814 12.738ZM61.8065 20.5268L62.7102 21.5952C62.7385 21.6283 62.7527 21.623 62.7527 21.5795L62.6964 13.2698C62.6958 13.1821 62.6634 13.1678 62.5992 13.2268C62.4316 13.3817 62.2579 13.5581 62.0783 13.756C61.8554 14.0016 61.6293 14.0421 61.3199 14.0537C61.3025 14.0542 61.286 14.0609 61.2733 14.0727L60.6374 14.6367C60.6096 14.6615 60.5957 14.6926 60.5957 14.7301L60.6251 21.6771C60.6257 21.7498 60.6496 21.7589 60.697 21.7043L61.7265 20.5268C61.7531 20.4959 61.7798 20.4959 61.8065 20.5268ZM16.1682 47.8524L17.5055 47.8599C17.5289 47.8604 17.5477 47.8513 17.5618 47.8326L18.2852 46.8973C18.2934 46.8866 18.3036 46.8778 18.3153 46.8714C18.327 46.865 18.3398 46.8612 18.3529 46.8601L19.8404 46.7518C19.865 46.7502 19.8879 46.7389 19.9041 46.7204C29.5987 35.6986 39.2912 24.6749 48.9814 13.6493C49.1194 13.4922 49.1978 13.3566 48.9594 13.2309C48.9371 13.2193 48.917 13.2226 48.899 13.2408L16.1388 47.7821C16.1332 47.788 16.1294 47.7953 16.1279 47.8034C16.1264 47.8114 16.1272 47.8197 16.1304 47.8272C16.1335 47.8347 16.1388 47.8411 16.1455 47.8456C16.1523 47.8501 16.1602 47.8525 16.1682 47.8524ZM61.0586 23.6319C61.0586 23.5179 61.0139 23.4085 60.9343 23.3278C60.8547 23.2472 60.7467 23.2019 60.6341 23.2019C60.5215 23.2019 60.4135 23.2472 60.3339 23.3278C60.2543 23.4085 60.2096 23.5179 60.2096 23.6319C60.2096 23.7459 60.2543 23.8553 60.3339 23.936C60.4135 24.0166 60.5215 24.0619 60.6341 24.0619C60.7467 24.0619 60.8547 24.0166 60.9343 23.936C61.0139 23.8553 61.0586 23.7459 61.0586 23.6319ZM63.3642 23.6319C63.3642 23.5181 63.3195 23.4089 63.2401 23.3284C63.1606 23.2479 63.0528 23.2027 62.9405 23.2027C62.8281 23.2027 62.7203 23.2479 62.6408 23.3284C62.5614 23.4089 62.5167 23.5181 62.5167 23.6319C62.5167 23.7457 62.5614 23.8549 62.6408 23.9354C62.7203 24.0159 62.8281 24.0611 62.9405 24.0611C63.0528 24.0611 63.1606 24.0159 63.2401 23.9354C63.3195 23.8549 63.3642 23.7457 63.3642 23.6319ZM23.4441 50.597L25.7333 52.809C25.7567 52.8321 25.7796 52.8313 25.8019 52.8065C25.9635 52.6287 26.1791 52.4642 26.1733 52.1962C26.1587 51.4685 26.1665 50.6554 26.197 49.7568C26.215 49.2375 26.9587 48.7281 27.3229 48.4147C27.7245 48.0691 28.3417 48.1865 28.8251 48.1848C28.8484 48.1848 28.8712 48.1786 28.8913 48.1668C28.9114 48.1551 28.928 48.1382 28.9394 48.1179L32.3438 42.0119C32.3641 41.9751 32.398 41.9479 32.4379 41.9363C32.4779 41.9246 32.5206 41.9295 32.5569 41.9499L32.7789 42.0714C32.7938 42.0796 32.8112 42.0815 32.8276 42.0767C32.8439 42.072 32.8578 42.0608 32.8663 42.0458L34.9367 38.3602C34.9387 38.357 34.9394 38.3532 34.9388 38.3496C34.9382 38.3459 34.9362 38.3426 34.9333 38.3402C34.9303 38.3378 34.9266 38.3365 34.9228 38.3366C34.9189 38.3366 34.9152 38.3379 34.9122 38.3403C34.0591 39.1102 33.1594 39.842 32.3862 40.6896C29.4004 43.967 26.4188 47.2482 23.4416 50.5333C23.422 50.5553 23.4229 50.5766 23.4441 50.597ZM35.9131 53.1306C35.5866 51.5984 34.8657 49.5972 33.3774 48.8662C33.2364 48.7968 33.0647 48.7587 32.8622 48.7521C32.2445 48.7328 31.6281 48.7171 31.013 48.705C30.9889 48.7045 30.9656 48.7137 30.9482 48.7306C30.9308 48.7475 30.9206 48.7707 30.92 48.7951C30.92 48.8023 30.9205 48.818 30.9216 48.8422C30.9221 48.8588 30.9268 48.8742 30.9355 48.8885C31.7143 50.1879 32.1514 51.5997 32.2466 53.124C32.2483 53.1532 32.2638 53.1679 32.2932 53.1679H35.8838C35.9082 53.1679 35.918 53.1555 35.9131 53.1306ZM27.5841 50.4241C27.5844 50.4303 27.5867 50.4362 27.5907 50.441C27.5946 50.4458 27.5999 50.4492 27.6058 50.4506C27.6118 50.4521 27.618 50.4516 27.6237 50.4492C27.6293 50.4469 27.634 50.4427 27.6372 50.4374L28.3442 49.1796C28.3466 49.1753 28.3478 49.1703 28.3478 49.1653C28.3477 49.1603 28.3464 49.1554 28.344 49.1511C28.3415 49.1468 28.338 49.1432 28.3337 49.1406C28.3295 49.1381 28.3246 49.1367 28.3197 49.1366H27.5825C27.5787 49.1366 27.5749 49.1374 27.5713 49.1389C27.5678 49.1404 27.5646 49.1426 27.562 49.1454C27.5593 49.1482 27.5572 49.1514 27.5558 49.1551C27.5545 49.1587 27.5538 49.1625 27.5539 49.1664L27.5841 50.4241ZM29.5321 53.8931C30.3411 53.9262 31.4229 53.9667 31.24 52.7197C31.1012 51.7745 30.8465 50.7863 30.3762 49.9454C30.3723 49.9381 30.3665 49.9321 30.3595 49.9279C30.3524 49.9237 30.3444 49.9215 30.3362 49.9215C30.3281 49.9215 30.3201 49.9237 30.313 49.9279C30.306 49.9321 30.3002 49.9381 30.2962 49.9454L28.1376 53.8153C28.1347 53.8209 28.1332 53.8272 28.1333 53.8335C28.1334 53.8398 28.1352 53.846 28.1384 53.8514C28.1416 53.8569 28.1462 53.8613 28.1516 53.8644C28.1571 53.8675 28.1632 53.8691 28.1695 53.8691C28.6239 53.8669 29.0781 53.8749 29.5321 53.8931ZM56.8321 55.7611C56.966 56.1084 57.2729 56.3259 57.6428 56.3275C58.6513 56.3336 59.6598 56.3328 60.6684 56.325C60.8398 56.3239 60.9781 56.2727 61.0831 56.1712C61.1041 56.1506 61.1164 56.1224 61.1174 56.0927C61.1212 55.9422 61.0883 55.7784 61.0186 55.6015C60.4145 54.0656 59.8057 52.5322 59.1923 51.0013C58.9539 50.4084 58.4657 50.2323 57.8265 50.167C57.1412 50.097 56.4557 50.0283 55.7699 49.9611C54.4481 49.8321 54.8196 50.5755 55.1217 51.3528C55.6937 52.8214 56.2638 54.2908 56.8321 55.7611ZM54.9437 56.2167C55.436 56.3399 56.0279 56.196 56.0622 55.6073C56.0709 55.4568 56.0102 55.1991 55.8801 54.8341C55.196 52.9085 54.7423 51.6582 54.5192 51.0832C54.4302 50.8558 54.035 50.6466 53.8644 50.941C53.6652 51.2866 53.7248 51.6538 53.7469 52.0523C53.8013 53.0441 53.8489 54.0372 53.8897 55.0317C53.8908 55.0599 53.8992 55.0852 53.915 55.1078C54.1458 55.4364 54.3954 55.7484 54.6637 56.0439C54.7437 56.1321 54.837 56.1897 54.9437 56.2167ZM49.0174 54.7126C49.0182 54.9176 49.1692 55.0946 49.3766 55.088C50.4265 55.0527 51.4759 55.0078 52.5247 54.9532C52.9386 54.9317 52.9908 54.768 52.99 54.3735C52.9895 53.4181 52.9889 52.4625 52.9884 51.5066C52.9876 51.2047 52.8864 51.0079 52.5614 51.0435C51.5197 51.1554 50.4779 51.2648 49.4362 51.3718C49.1521 51.4016 49.0098 51.5521 49.0092 51.8233C49.0076 52.7875 49.0103 53.7506 49.0174 54.7126ZM17.6696 52.0639C17.9363 52.081 18.2033 52.0805 18.4705 52.0623C18.7416 52.0449 18.6664 51.5835 18.6305 51.4123C18.6234 51.3776 18.6045 51.3464 18.5771 51.3241C18.5497 51.3018 18.5155 51.2897 18.4803 51.2899L17.0646 51.3032C17.0173 51.3037 17.0089 51.3222 17.0393 51.3586L17.5937 52.0259C17.6133 52.0496 17.6386 52.0623 17.6696 52.0639ZM21.3296 52.5584C21.5761 52.581 21.8221 52.5791 22.0676 52.5526C22.2004 52.5388 22.2894 52.5573 22.3346 52.608C22.9409 53.2916 23.5497 53.9752 24.1609 54.6588C24.1719 54.6711 24.1854 54.6809 24.2005 54.6875C24.2155 54.6942 24.2318 54.6977 24.2482 54.6977H25.2222C25.2377 54.6976 25.2529 54.6943 25.267 54.6879C25.2811 54.6815 25.2936 54.6721 25.3039 54.6604L25.7268 54.18C25.7491 54.1547 25.7485 54.1301 25.7251 54.1064L23.2122 51.519C23.2035 51.5099 23.193 51.5028 23.1815 51.4982C23.1699 51.4937 23.1576 51.4917 23.1453 51.4925L20.5564 51.6744C20.5194 51.6772 20.5134 51.6926 20.5385 51.7207L21.2496 52.5179C21.2713 52.5416 21.298 52.5551 21.3296 52.5584ZM45.3223 54.8192C45.2766 55.1334 45.5052 55.2401 45.7844 55.2352C46.5393 55.2214 47.2675 55.1999 47.9691 55.1707C48.057 55.1668 48.1401 55.1289 48.2009 55.0648C48.2618 55.0007 48.2957 54.9154 48.2957 54.8267C48.2973 53.8311 48.2919 52.8512 48.2793 51.887C48.2761 51.6422 48.1656 51.5212 47.9479 51.5239C47.6714 51.5284 47.0787 51.5664 46.1697 51.6381C45.927 51.6574 45.7866 51.783 45.7485 52.0151C45.6412 52.6618 45.4992 53.5965 45.3223 54.8192ZM18.6673 53.296L19.5433 53.2828C19.5568 53.2826 19.5699 53.2781 19.5807 53.2699C19.5915 53.2618 19.5996 53.2504 19.6037 53.2373C19.669 53.0383 19.6763 52.8371 19.6257 52.6337C19.6183 52.6032 19.601 52.5762 19.5768 52.5569C19.5525 52.5376 19.5226 52.527 19.4918 52.527H18.0647C18.0587 52.5269 18.0527 52.5286 18.0476 52.5319C18.0425 52.5351 18.0384 52.5399 18.0358 52.5455C18.0332 52.5512 18.0323 52.5575 18.0331 52.5637C18.0339 52.57 18.0363 52.5759 18.0403 52.5807L18.6044 53.2671C18.612 53.2764 18.6216 53.2838 18.6325 53.2888C18.6434 53.2938 18.6553 53.2963 18.6673 53.296ZM19.6845 54.5885C19.687 54.5916 19.6901 54.5941 19.6936 54.5958C19.6971 54.5975 19.701 54.5984 19.7049 54.5984L20.692 54.5844C20.6986 54.5842 20.7049 54.5814 20.7096 54.5766C20.7143 54.5719 20.7171 54.5655 20.7173 54.5587L20.7222 53.8575C20.7222 53.8505 20.7194 53.8438 20.7145 53.8388C20.7096 53.8338 20.703 53.8311 20.696 53.8311L19.1236 53.8286C19.1187 53.8286 19.1139 53.83 19.1097 53.8326C19.1055 53.8353 19.1022 53.8391 19.1001 53.8436C19.0979 53.8481 19.0971 53.8531 19.0977 53.858C19.0982 53.863 19.1001 53.8677 19.1032 53.8716L19.6845 54.5885ZM32.3405 55.8487C32.3405 55.8558 32.3433 55.8625 32.3482 55.8675C32.3531 55.8724 32.3597 55.8752 32.3667 55.8752L36.1622 55.881C36.1657 55.881 36.1693 55.8803 36.1725 55.8788C36.1758 55.8774 36.1788 55.8753 36.1812 55.8727C36.1837 55.87 36.1856 55.8669 36.1868 55.8635C36.188 55.8601 36.1885 55.8565 36.1883 55.8529L36.0593 53.9369C36.0589 53.9302 36.0559 53.9239 36.0511 53.9192C36.0462 53.9146 36.0398 53.9121 36.0332 53.9121H32.3422C32.3352 53.9121 32.3286 53.9149 32.3237 53.9198C32.3188 53.9248 32.316 53.9315 32.316 53.9385L32.3405 55.8487ZM25.5006 56.1183C25.4867 57.0651 26.6346 57.3645 26.9244 56.3912C26.9767 56.2142 27.0096 56.0552 27.0232 55.9141C27.0281 55.8611 27.0134 55.8548 26.9791 55.895C26.5685 56.3697 26.0533 56.679 25.5374 56.1043C25.5134 56.0772 25.5012 56.0819 25.5006 56.1183ZM21.1912 56.1238C21.1912 56.1129 21.189 56.102 21.1849 56.0919C21.1807 56.0817 21.1746 56.0725 21.1669 56.0648C21.1593 56.0571 21.1502 56.0509 21.1402 56.0467C21.1301 56.0426 21.1194 56.0404 21.1086 56.0404L20.0081 56.0424C19.9972 56.0424 19.9865 56.0446 19.9765 56.0488C19.9665 56.053 19.9575 56.0592 19.9498 56.0669C19.9422 56.0747 19.9361 56.0839 19.932 56.0941C19.9279 56.1042 19.9257 56.1151 19.9258 56.126L19.9266 56.599C19.9266 56.61 19.9287 56.6209 19.9329 56.631C19.9371 56.6411 19.9432 56.6503 19.9508 56.6581C19.9585 56.6658 19.9676 56.6719 19.9776 56.6761C19.9876 56.6803 19.9984 56.6824 20.0092 56.6824L21.1097 56.6805C21.1205 56.6805 21.1312 56.6783 21.1412 56.6741C21.1512 56.6698 21.1603 56.6637 21.168 56.6559C21.1756 56.6481 21.1817 56.6389 21.1858 56.6288C21.1899 56.6186 21.192 56.6078 21.192 56.5968L21.1912 56.1238ZM51.2437 60.0561C51.223 59.2297 51.2211 58.4031 51.238 57.5762C51.2421 57.3562 51.1817 57.2115 50.9539 57.19C50.7033 57.1669 49.9513 57.0734 49.9505 57.4943C49.9478 58.3433 49.9473 59.1834 49.9489 60.0148C49.9489 60.0556 49.9288 60.0757 49.8885 60.0751L47.7748 60.0288C47.7568 60.0284 47.7397 60.0209 47.7271 60.008C47.7144 59.995 47.7072 59.9776 47.707 59.9594L47.6931 58.8827C47.6929 58.8497 47.6798 58.818 47.6566 58.7947C47.6333 58.7713 47.6019 58.7581 47.5691 58.7578L45.7713 58.7537C45.7419 58.7537 45.7136 58.7654 45.6925 58.7863C45.6714 58.8071 45.6593 58.8355 45.6587 58.8653L45.6342 59.9552C45.6341 59.9606 45.6329 59.9658 45.6308 59.9707C45.6287 59.9755 45.6257 59.98 45.6219 59.9836C45.6181 59.9873 45.6136 59.9902 45.6087 59.9922C45.6038 59.9941 45.5986 59.995 45.5933 59.9949L44.4814 59.9643C44.4589 59.9638 44.4378 59.9546 44.4226 59.9387L43.3294 58.8099C43.3071 58.7868 43.2799 58.7744 43.2478 58.7727C40.1977 58.6288 37.1451 58.5122 34.095 58.3857C33.8087 58.3736 33.3698 58.3888 32.7781 58.4312C31.8322 58.4985 30.0249 58.5974 27.3563 58.7281C27.3384 58.7286 27.3346 58.7363 27.3449 58.7512C27.3509 58.76 27.361 58.7647 27.3751 58.7653C31.0315 58.8789 34.6888 58.9974 38.3469 59.1209C38.3741 59.122 38.3972 59.1327 38.4163 59.1531C38.6971 59.458 38.9703 59.7708 39.2359 60.0917C39.3829 60.2695 39.5062 60.2099 39.7021 60.2141C41.3943 60.2565 43.0864 60.2932 44.7786 60.324C45.3163 60.3334 45.854 60.3304 46.3918 60.3149C48.4301 60.2554 50.4687 60.2011 52.5075 60.152C52.5135 60.152 52.5182 60.1507 52.5214 60.1479C52.5263 60.1435 52.5304 60.1377 52.5337 60.1305L52.5343 60.1266L52.533 60.1228L52.5301 60.12L52.5263 60.119L51.2935 60.1057C51.2805 60.1055 51.2681 60.1003 51.2588 60.091C51.2496 60.0818 51.2441 60.0693 51.2437 60.0561ZM27.2429 58.4874L28.7753 58.4775C28.8085 58.4775 28.8275 58.461 28.8324 58.4279L28.8495 58.3105C28.8528 58.2862 28.8664 58.2741 28.8904 58.2741H31.0555C31.0696 58.2741 31.0831 58.2684 31.093 58.2584C31.103 58.2483 31.1086 58.2346 31.1086 58.2203L31.1094 57.6746C31.1094 57.647 31.0958 57.6332 31.0686 57.6332H27.8911C27.8493 57.6332 27.8091 57.6497 27.7791 57.6792C27.749 57.7087 27.7315 57.7488 27.7302 57.7912L27.7172 58.1782C27.7167 58.1902 27.712 58.2016 27.7039 58.2104C27.6958 58.2192 27.6849 58.2248 27.6731 58.2261C27.5724 58.2388 27.4714 58.2421 27.3702 58.2361C27.294 58.2311 27.2445 58.2402 27.2216 58.2634C27.1841 58.3003 27.1759 58.3629 27.1971 58.4511C27.1997 58.4614 27.2055 58.4706 27.2138 58.4772C27.2221 58.4838 27.2323 58.4874 27.2429 58.4874ZM14.1892 59.4549C15.4 59.1614 16.338 59.8254 16.9495 60.8508C16.9653 60.8778 16.9844 60.8803 17.0067 60.8582C17.5428 60.3229 18.1899 60.1049 18.9481 60.2041C18.9884 60.2096 18.9987 60.1945 18.9791 60.1586L18.5374 59.3433C18.5233 59.3168 18.5015 59.3036 18.4721 59.3036L14.2758 59.2242C14.2526 59.2237 14.23 59.2312 14.2116 59.2455C14.1932 59.2598 14.1801 59.28 14.1745 59.3028L14.1476 59.4119C14.1383 59.4494 14.1522 59.4638 14.1892 59.4549ZM31.6351 60.6565C33.3202 60.8938 34.2624 62.5898 34.4754 64.1891C34.4761 64.1944 34.4786 64.1994 34.4826 64.2031C34.4865 64.2068 34.4915 64.209 34.4969 64.2093C34.5022 64.2095 34.5075 64.2079 34.5118 64.2047C34.5161 64.2015 34.5191 64.1968 34.5203 64.1915C34.8983 62.4856 36.1491 60.7061 38.1158 60.9674C38.1452 60.9712 38.1575 60.9583 38.1526 60.9285C37.9942 59.9792 37.386 60.0321 36.5336 60.0164C34.2694 59.9751 32.0058 59.9635 29.7427 59.9817C29.1728 59.9867 28.8659 60.2571 28.8218 60.7929C28.788 61.2053 28.7913 61.745 28.8316 62.412C28.8343 62.4583 28.8457 62.4608 28.8659 62.4195C29.3688 61.3817 30.4326 60.4869 31.6351 60.6565ZM13.4447 62.8619L13.6741 62.928C13.6875 62.9319 13.7018 62.9316 13.715 62.927C13.7283 62.9224 13.7399 62.9138 13.7484 62.9024C13.83 62.7924 13.8872 62.5509 14.0749 62.6477C14.0983 62.6598 14.1141 62.6788 14.1223 62.7047C14.2145 63.0115 14.4391 62.861 14.6179 62.8643C14.7833 62.8671 14.9518 62.866 15.1232 62.861C15.1537 62.8605 15.167 62.8448 15.1632 62.8139C15.0906 62.2384 14.8791 61.2303 14.2448 61.0071C13.3892 60.7061 13.0389 62.3401 13.0381 62.8652C13.0381 62.8977 13.0539 62.9167 13.0854 62.9222C13.1829 62.9399 13.2724 62.9239 13.354 62.8743C13.3829 62.8572 13.4131 62.853 13.4447 62.8619ZM61.8594 61.3131C61.8583 61.2486 61.8319 61.1872 61.7861 61.1425C61.7403 61.0977 61.6789 61.0731 61.6152 61.0743L60.2243 61.0988C60.1927 61.0994 60.1616 61.1062 60.1327 61.119C60.1038 61.1317 60.0777 61.1501 60.0558 61.173C60.0339 61.196 60.0167 61.2231 60.0051 61.2528C59.9936 61.2825 59.9879 61.3142 59.9885 61.3462L60.0015 62.1052C60.0026 62.1696 60.029 62.231 60.0748 62.2758C60.1206 62.3206 60.1821 62.3451 60.2457 62.344L61.6367 62.3194C61.6682 62.3189 61.6993 62.312 61.7282 62.2993C61.7571 62.2866 61.7832 62.2682 61.8051 62.2452C61.827 62.2223 61.8443 62.1951 61.8558 62.1654C61.8674 62.1357 61.873 62.104 61.8725 62.0721L61.8594 61.3131ZM15.7959 62.7932C15.7344 62.2254 15.5347 61.7133 15.1967 61.2568C15.1943 61.2538 15.1909 61.2518 15.1872 61.2511C15.1834 61.2505 15.1796 61.2513 15.1764 61.2533C15.1732 61.2554 15.1708 61.2585 15.1697 61.2622C15.1686 61.2659 15.1689 61.2699 15.1706 61.2733C15.409 61.7375 15.5543 62.2304 15.6065 62.7519C15.6109 62.7938 15.6229 62.8235 15.6424 62.8412C15.6735 62.8687 15.7116 62.874 15.7567 62.8569C15.7693 62.8522 15.78 62.8434 15.7871 62.8319C15.7942 62.8203 15.7973 62.8067 15.7959 62.7932ZM49.5874 61.7682C49.5866 61.7214 49.5767 61.6752 49.5583 61.6323C49.5399 61.5894 49.5133 61.5506 49.4801 61.5181C49.4468 61.4855 49.4076 61.46 49.3646 61.4428C49.3216 61.4257 49.2757 61.4173 49.2295 61.4181L47.3471 61.4514C47.3009 61.4522 47.2553 61.4622 47.213 61.4809C47.1706 61.4995 47.1322 61.5265 47.1002 61.5601C47.0681 61.5938 47.0428 61.6335 47.0259 61.6771C47.0089 61.7206 47.0006 61.7671 47.0014 61.8139L47.0186 62.8077C47.0194 62.8545 47.0293 62.9007 47.0477 62.9436C47.0661 62.9866 47.0927 63.0254 47.126 63.0579C47.1592 63.0904 47.1984 63.116 47.2414 63.1331C47.2844 63.1503 47.3303 63.1587 47.3765 63.1579L49.2589 63.1246C49.3051 63.1238 49.3507 63.1137 49.3931 63.0951C49.4354 63.0764 49.4738 63.0495 49.5059 63.0158C49.538 62.9821 49.5632 62.9424 49.5801 62.8989C49.5971 62.8553 49.6054 62.8088 49.6046 62.762L49.5874 61.7682ZM58.6007 62.0324C58.5981 61.9768 58.5846 61.9222 58.5611 61.8718C58.5376 61.8215 58.5045 61.7763 58.4637 61.7389C58.423 61.7015 58.3754 61.6725 58.3236 61.6537C58.2718 61.635 58.2169 61.6267 58.162 61.6294L52.2859 61.9205C52.231 61.9232 52.1771 61.9369 52.1274 61.9607C52.0777 61.9845 52.0331 62.018 51.9961 62.0593C51.9592 62.1005 51.9306 62.1488 51.9121 62.2012C51.8935 62.2537 51.8854 62.3093 51.8881 62.3649L51.8892 62.3881C51.8919 62.4437 51.9053 62.4983 51.9289 62.5486C51.9524 62.599 51.9854 62.6442 52.0262 62.6816C52.0669 62.719 52.1145 62.748 52.1663 62.7667C52.2181 62.7855 52.273 62.7938 52.328 62.7911L58.204 62.5C58.2589 62.4972 58.3128 62.4836 58.3625 62.4598C58.4123 62.436 58.4569 62.4025 58.4938 62.3612C58.5308 62.3199 58.5593 62.2717 58.5779 62.2193C58.5964 62.1668 58.6045 62.1112 58.6019 62.0555L58.6007 62.0324ZM17.0287 62.8172L18.7562 62.7593C18.7807 62.7588 18.7894 62.7466 18.7824 62.7229C18.4142 61.4536 17.303 61.5305 17.0018 62.7825C16.9958 62.8062 17.0048 62.8178 17.0287 62.8172ZM19.0069 62.1151C19.1016 62.2993 19.1824 62.4895 19.2494 62.6857C19.2608 62.7182 19.276 62.74 19.2951 62.7511C19.3228 62.7665 19.3555 62.767 19.393 62.7527C19.3985 62.7505 19.4034 62.7472 19.4074 62.7429C19.4114 62.7387 19.4145 62.7336 19.4163 62.728C19.4182 62.7224 19.4188 62.7164 19.4182 62.7106C19.4176 62.7047 19.4157 62.699 19.4126 62.694L19.0355 62.0573C19.0319 62.0516 19.0267 62.0473 19.0204 62.045C19.0142 62.0428 19.0074 62.0427 19.0012 62.0449C18.9669 62.0559 18.9633 62.073 18.9906 62.0961C18.9982 62.1022 19.0036 62.1085 19.0069 62.1151ZM30.6505 67.2038C30.8098 67.2015 30.9667 67.1381 31.1123 67.0171C31.2578 66.8961 31.3891 66.7199 31.4987 66.4986C31.6084 66.2772 31.6941 66.0151 31.7511 65.7271C31.8081 65.4391 31.8353 65.131 31.831 64.8202C31.8267 64.5094 31.7911 64.2022 31.7261 63.9159C31.6612 63.6297 31.5683 63.3701 31.4526 63.1519C31.3369 62.9338 31.2008 62.7614 31.052 62.6445C30.9032 62.5277 30.7446 62.4687 30.5853 62.471C30.426 62.4732 30.2691 62.5367 30.1235 62.6577C29.978 62.7787 29.8467 62.9549 29.7371 63.1762C29.6274 63.3975 29.5417 63.6597 29.4847 63.9476C29.4277 64.2356 29.4005 64.5438 29.4048 64.8545C29.4091 65.1653 29.4447 65.4726 29.5096 65.7588C29.5746 66.0451 29.6675 66.3047 29.7832 66.5228C29.8989 66.741 30.035 66.9134 30.1838 67.0302C30.3326 67.1471 30.4912 67.206 30.6505 67.2038ZM31.845 62.8023C32.4687 63.9749 32.5348 65.718 31.8882 66.8443C31.6139 67.3212 31.6422 67.3405 31.9731 66.9022C32.18 66.6282 32.3403 66.2566 32.454 65.7875C32.7114 64.7274 32.5416 63.7541 31.9446 62.8676C31.919 62.8302 31.8956 62.8009 31.8744 62.78C31.8711 62.7771 31.867 62.7755 31.8627 62.7753C31.8584 62.7751 31.8542 62.7765 31.8507 62.7791C31.8473 62.7817 31.8448 62.7854 31.8438 62.7897C31.8427 62.7939 31.8432 62.7984 31.845 62.8023ZM36.9485 68.1977C37.3047 68.1927 37.6424 67.912 37.8875 67.4173C38.1326 66.9227 38.2649 66.2546 38.2553 65.5601C38.2506 65.2162 38.2111 64.8762 38.1393 64.5595C38.0674 64.2427 37.9645 63.9555 37.8365 63.7141C37.7084 63.4727 37.5577 63.2819 37.393 63.1526C37.2282 63.0233 37.0527 62.958 36.8763 62.9605C36.5202 62.9656 36.1824 63.2463 35.9374 63.7409C35.6923 64.2356 35.56 64.9036 35.5696 65.5981C35.5743 65.942 35.6137 66.282 35.6856 66.5988C35.7575 66.9155 35.8604 67.2028 35.9884 67.4442C36.1165 67.6856 36.2672 67.8764 36.4319 68.0057C36.5966 68.1349 36.7722 68.2002 36.9485 68.1977ZM38.2473 63.3018C39.1086 64.8523 38.9486 66.6425 38.1673 68.1616C38.1652 68.1663 38.1649 68.1715 38.1663 68.1764C38.1678 68.1813 38.1709 68.1855 38.1751 68.1883C38.1793 68.191 38.1844 68.1922 38.1894 68.1916C38.1944 68.1909 38.199 68.1885 38.2024 68.1847C39.298 66.7608 39.3674 64.7332 38.2848 63.2828C38.281 63.2778 38.2772 63.2759 38.2734 63.277C38.2669 63.2792 38.2603 63.2814 38.2538 63.2836L38.2492 63.2865L38.2462 63.2911L38.2455 63.2966L38.2473 63.3018ZM19.3473 64.8324L18.8967 65.8727C18.8959 65.8744 18.8954 65.8763 18.8954 65.8782C18.8953 65.8801 18.8956 65.882 18.8963 65.8838C18.897 65.8856 18.8994 65.8885 18.8994 65.8885L18.904 65.8917L18.9252 65.9008C18.9401 65.9076 18.9607 65.9007 18.9859 65.8807C19.0111 65.8606 19.0403 65.8277 19.0719 65.7839C19.1035 65.74 19.1369 65.6861 19.1702 65.6251C19.2034 65.5641 19.2359 65.4974 19.2657 65.4286L19.2747 65.4088C19.3045 65.3399 19.3311 65.2704 19.3529 65.2042C19.3748 65.1381 19.3914 65.0766 19.4019 65.0232C19.4123 64.9699 19.4164 64.9258 19.4139 64.8935C19.4115 64.8612 19.4024 64.8413 19.3873 64.8349L19.3661 64.825L19.3607 64.8236L19.3551 64.8246L19.3504 64.8277C19.3504 64.8277 19.348 64.8306 19.3473 64.8324ZM17.014 64.9341C17.3781 66.2175 18.5603 66.2531 18.8297 64.9044C18.8346 64.8812 18.8254 64.8699 18.802 64.8704L17.045 64.8919C17.0167 64.8925 17.0064 64.9066 17.014 64.9341ZM14.5476 64.8953L13.6855 64.9085L13.6834 64.9089L13.6817 64.9102L13.6807 64.9121L13.6806 64.9143C13.6819 64.9729 13.7274 65.0284 13.8073 65.0685C13.8872 65.1087 13.9949 65.1302 14.1068 65.1284H14.1329C14.1884 65.1276 14.2433 65.121 14.2945 65.1091C14.3456 65.0971 14.392 65.08 14.431 65.0589C14.4699 65.0377 14.5007 65.0127 14.5216 64.9855C14.5425 64.9583 14.553 64.9293 14.5525 64.9002L14.5511 64.8967L14.5476 64.8953ZM15.1003 65.0941C15.1092 65.1015 15.1261 65.0981 15.1472 65.0847C15.1684 65.0714 15.1921 65.0492 15.2131 65.023C15.2235 65.01 15.233 64.9964 15.2409 64.983C15.2488 64.9696 15.2551 64.9567 15.2594 64.945C15.2636 64.9332 15.2657 64.9229 15.2657 64.9146C15.2656 64.9063 15.2632 64.9001 15.2588 64.8965C15.2499 64.8892 15.233 64.8925 15.2119 64.9059C15.1907 64.9192 15.167 64.9415 15.146 64.9677C15.1356 64.9806 15.1261 64.9942 15.1182 65.0076C15.1102 65.021 15.104 65.0339 15.0997 65.0456C15.0955 65.0574 15.0933 65.0677 15.0934 65.076C15.0935 65.0844 15.0958 65.0905 15.1003 65.0941Z" fill="white"/>
<path d="M13.902 61.8002C13.9067 61.8882 13.9521 61.9573 14.0035 61.9545C14.0548 61.9517 14.0926 61.878 14.0879 61.79C14.0832 61.702 14.0377 61.6329 13.9864 61.6357C13.9351 61.6386 13.8973 61.7122 13.902 61.8002Z" fill="white"/>
<path d="M17.713 62.5877C17.7093 62.683 17.7499 62.7621 17.8035 62.7641C17.8571 62.7662 17.9035 62.6906 17.9071 62.5952C17.9107 62.4998 17.8702 62.4208 17.8166 62.4187C17.763 62.4167 17.7166 62.4923 17.713 62.5877Z" fill="white"/>
<path d="M30.3959 63.3977C30.3998 63.5004 30.4512 63.5818 30.5106 63.5795C30.5701 63.5771 30.6152 63.492 30.6113 63.3894C30.6074 63.2867 30.556 63.2053 30.4965 63.2076C30.4371 63.2099 30.392 63.295 30.3959 63.3977Z" fill="white"/>
<path d="M36.6856 63.9858C36.6919 64.1034 36.7456 64.1962 36.8054 64.1929C36.8653 64.1896 36.9088 64.0916 36.9025 63.9739C36.8962 63.8562 36.8425 63.7635 36.7827 63.7668C36.7228 63.7701 36.6793 63.8681 36.6856 63.9858Z" fill="white"/>
<path d="M30.2636 64.8392C30.2672 65.1027 30.3805 65.3147 30.5167 65.3128C30.6529 65.3109 30.7603 65.0957 30.7567 64.8322C30.753 64.5687 30.6397 64.3567 30.5036 64.3586C30.3674 64.3605 30.26 64.5757 30.2636 64.8392Z" fill="white"/>
<path d="M29.7657 64.7878C29.7702 64.8918 29.8249 64.9739 29.888 64.9711C29.951 64.9683 29.9985 64.8817 29.9941 64.7777C29.9896 64.6737 29.9348 64.5916 29.8717 64.5944C29.8087 64.5972 29.7612 64.6838 29.7657 64.7878Z" fill="white"/>
<path d="M31.1005 64.7861C31.1052 64.8942 31.159 64.9796 31.2207 64.9769C31.2824 64.9742 31.3286 64.8843 31.324 64.7762C31.3193 64.668 31.2655 64.5826 31.2038 64.5853C31.1421 64.5881 31.0958 64.6779 31.1005 64.7861Z" fill="white"/>
<path d="M17.7153 65.0882C17.7149 65.18 17.7587 65.2546 17.8133 65.2549C17.8678 65.2552 17.9124 65.181 17.9129 65.0892C17.9134 64.9974 17.8695 64.9228 17.815 64.9225C17.7604 64.9222 17.7158 64.9964 17.7153 65.0882Z" fill="white"/>
<path d="M36.5181 65.5831C36.5232 65.8744 36.6486 66.1084 36.7982 66.1058C36.9479 66.1032 37.0652 65.8648 37.0602 65.5735C37.0551 65.2822 36.9297 65.0482 36.7801 65.0508C36.6304 65.0535 36.5131 65.2918 36.5181 65.5831Z" fill="white"/>
<path d="M35.985 65.5185C35.9856 65.635 36.0362 65.7291 36.0979 65.7288C36.1597 65.7284 36.2093 65.6338 36.2087 65.5173C36.2081 65.4009 36.1575 65.3067 36.0957 65.3071C36.034 65.3074 35.9844 65.402 35.985 65.5185Z" fill="white"/>
<path d="M37.4586 65.5186C37.4576 65.6351 37.5061 65.7299 37.567 65.7304C37.6279 65.731 37.678 65.637 37.679 65.5205C37.68 65.4041 37.6315 65.3093 37.5706 65.3087C37.5098 65.3082 37.4596 65.4021 37.4586 65.5186Z" fill="white"/>
<path d="M30.4081 66.2313C30.407 66.3327 30.4511 66.4153 30.5066 66.4159C30.5621 66.4165 30.6079 66.3348 30.6089 66.2334C30.61 66.1321 30.5659 66.0494 30.5104 66.0488C30.4549 66.0482 30.4091 66.1299 30.4081 66.2313Z" fill="white"/>
<path d="M36.6848 67.1278C36.6898 67.2446 36.7428 67.3372 36.8032 67.3345C36.8635 67.3318 36.9084 67.235 36.9033 67.1182C36.8983 67.0014 36.8453 66.9088 36.7849 66.9115C36.7246 66.9142 36.6797 67.011 36.6848 67.1278Z" fill="white"/>
</g>
<path d="M95.0062 0.75V69H83.2875V0.75H95.0062ZM136.069 0.75L108.319 39.6562H91.6781L90.0844 29.4375H101.803L121.678 0.75H136.069ZM124.069 69L101.991 37.875L109.584 28.8281L138.178 69H124.069ZM154.747 28.0312V88.5H143.45V18.2812H153.856L154.747 28.0312ZM187.794 43.1719V44.1562C187.794 47.8438 187.356 51.2656 186.481 54.4219C185.637 57.5469 184.372 60.2812 182.684 62.625C181.028 64.9375 178.981 66.7344 176.544 68.0156C174.106 69.2969 171.294 69.9375 168.106 69.9375C164.95 69.9375 162.184 69.3594 159.809 68.2031C157.466 67.0156 155.481 65.3438 153.856 63.1875C152.231 61.0312 150.919 58.5 149.919 55.5938C148.95 52.6562 148.262 49.4375 147.856 45.9375V42.1406C148.262 38.4219 148.95 35.0469 149.919 32.0156C150.919 28.9844 152.231 26.375 153.856 24.1875C155.481 22 157.466 20.3125 159.809 19.125C162.153 17.9375 164.887 17.3438 168.012 17.3438C171.2 17.3438 174.028 17.9687 176.497 19.2188C178.966 20.4375 181.044 22.1875 182.731 24.4688C184.419 26.7188 185.684 29.4375 186.528 32.625C187.372 35.7812 187.794 39.2969 187.794 43.1719ZM176.497 44.1562V43.1719C176.497 40.8281 176.278 38.6562 175.841 36.6562C175.403 34.625 174.716 32.8438 173.778 31.3125C172.841 29.7812 171.637 28.5938 170.169 27.75C168.731 26.875 166.997 26.4375 164.966 26.4375C162.966 26.4375 161.247 26.7812 159.809 27.4688C158.372 28.125 157.169 29.0469 156.2 30.2344C155.231 31.4219 154.481 32.8125 153.95 34.4062C153.419 35.9688 153.044 37.6719 152.825 39.5156V48.6094C153.2 50.8594 153.841 52.9219 154.747 54.7969C155.653 56.6719 156.934 58.1719 158.591 59.2969C160.278 60.3906 162.434 60.9375 165.059 60.9375C167.091 60.9375 168.825 60.5 170.262 59.625C171.7 58.75 172.872 57.5469 173.778 56.0156C174.716 54.4531 175.403 52.6562 175.841 50.625C176.278 48.5938 176.497 46.4375 176.497 44.1562ZM226.347 58.8281V34.6406C226.347 32.8281 226.019 31.2656 225.362 29.9531C224.706 28.6406 223.706 27.625 222.362 26.9062C221.05 26.1875 219.394 25.8281 217.394 25.8281C215.55 25.8281 213.956 26.1406 212.612 26.7656C211.269 27.3906 210.222 28.2344 209.472 29.2969C208.722 30.3594 208.347 31.5625 208.347 32.9062H197.097C197.097 30.9062 197.581 28.9688 198.55 27.0938C199.519 25.2188 200.925 23.5469 202.769 22.0781C204.612 20.6094 206.816 19.4531 209.378 18.6094C211.941 17.7656 214.816 17.3438 218.003 17.3438C221.816 17.3438 225.191 17.9844 228.128 19.2656C231.097 20.5469 233.425 22.4844 235.112 25.0781C236.831 27.6406 237.691 30.8594 237.691 34.7344V57.2812C237.691 59.5938 237.847 61.6719 238.159 63.5156C238.503 65.3281 238.987 66.9062 239.612 68.25V69H228.034C227.503 67.7812 227.081 66.2344 226.769 64.3594C226.487 62.4531 226.347 60.6094 226.347 58.8281ZM227.987 38.1562L228.081 45.1406H219.972C217.878 45.1406 216.034 45.3438 214.441 45.75C212.847 46.125 211.519 46.6875 210.456 47.4375C209.394 48.1875 208.597 49.0938 208.066 50.1562C207.534 51.2188 207.269 52.4219 207.269 53.7656C207.269 55.1094 207.581 56.3438 208.206 57.4688C208.831 58.5625 209.737 59.4219 210.925 60.0469C212.144 60.6719 213.612 60.9844 215.331 60.9844C217.644 60.9844 219.659 60.5156 221.378 59.5781C223.128 58.6094 224.503 57.4375 225.503 56.0625C226.503 54.6562 227.034 53.3281 227.097 52.0781L230.753 57.0938C230.378 58.375 229.737 59.75 228.831 61.2188C227.925 62.6875 226.737 64.0938 225.269 65.4375C223.831 66.75 222.097 67.8281 220.066 68.6719C218.066 69.5156 215.753 69.9375 213.128 69.9375C209.816 69.9375 206.862 69.2812 204.269 67.9688C201.675 66.625 199.644 64.8281 198.175 62.5781C196.706 60.2969 195.972 57.7188 195.972 54.8438C195.972 52.1562 196.472 49.7812 197.472 47.7188C198.503 45.625 200.003 43.875 201.972 42.4688C203.972 41.0625 206.409 40 209.284 39.2812C212.159 38.5312 215.441 38.1562 219.128 38.1562H227.987ZM284.494 39.4688V48.375H258.244V39.4688H284.494ZM261.525 18.2812V69H250.228V18.2812H261.525ZM292.65 18.2812V69H281.353V18.2812H292.65Z" fill="white"/>
<defs>
<clipPath id="clip0_271_1477">
<rect width="65" height="67" fill="white" transform="translate(0 3)"/>
</clipPath>
</defs>
</svg>
