<svg width="36" height="36" viewBox="0 0 36 36" fill="none" xmlns="http://www.w3.org/2000/svg">
<g clip-path="url(#clip0_289_115)">
<path d="M24.9427 21.3197C25.1171 21.5232 25.4659 21.9883 25.4369 22.279C25.3206 23.122 23.3148 22.5115 22.6462 22.8022H22.588C21.8322 22.6569 21.309 22.1336 20.8729 21.6395C20.6113 21.3778 20.2334 20.7092 19.7973 20.7964C19.1578 20.8836 19.4776 21.9883 19.1869 22.4534C18.9834 22.8313 18.0531 22.7732 17.4136 22.715C15.4078 22.4825 14.3903 21.4069 13.4892 20.2732C13.402 20.186 13.3438 20.0988 13.2857 20.0115C13.2566 19.9825 13.2276 19.9534 13.2276 19.9243C13.1694 19.8662 13.1113 19.779 13.0822 19.7209C13.0531 19.6918 13.0241 19.6627 13.0241 19.6336C12.9659 19.5755 12.9369 19.5174 12.8787 19.4302C12.8497 19.4302 12.8497 19.4011 12.8206 19.372C12.7624 19.2848 12.7043 19.1685 12.6462 19.0813L12.4717 18.8197C12.4427 18.7906 12.4136 18.7615 12.4136 18.7325C12.3555 18.6743 12.3264 18.5871 12.2683 18.529C12.2683 18.4999 12.2392 18.4709 12.2392 18.4418C12.181 18.3836 12.152 18.2964 12.0938 18.2383C12.0938 18.2092 12.0648 18.1802 12.0648 18.1511C11.7159 17.5697 11.3962 16.9592 11.0764 16.3197C10.8438 15.8546 10.5531 15.3604 10.5531 14.779C10.8729 14.5174 11.4252 14.6046 11.9485 14.6046C12.4136 14.6046 13.1113 14.5174 13.4601 14.6918C13.6345 14.779 13.838 15.3313 14.0124 15.6511C14.245 16.2034 14.5066 16.6395 14.7683 17.0755C14.7973 17.1046 14.8264 17.1627 14.8555 17.1918C14.8555 17.2209 14.8555 17.2209 14.8845 17.2499C14.8845 17.279 14.9136 17.3081 14.9427 17.3371L14.9717 17.3662C15.0008 17.4243 15.0008 17.4534 15.0299 17.4825L15.059 17.5115C15.088 17.5697 15.1171 17.5988 15.1462 17.6569C15.3497 17.9185 15.6403 18.4418 15.9892 18.3836C16.338 18.3255 16.3671 17.4825 16.3671 16.9592V16.872C16.3962 16.2615 16.3671 15.5929 16.1927 15.2732C16.0473 14.9825 15.7276 14.9825 15.4369 14.779C15.6985 14.2848 16.3671 14.2267 17.2101 14.2267C17.9078 14.2267 18.8962 14.1685 19.1578 14.6046C19.4485 15.0988 19.245 15.9418 19.245 16.5813C19.2159 16.6395 19.2159 16.7267 19.2159 16.7848V16.8139V17.0464V17.1046V17.1627V17.1918V17.2209C19.2159 17.2209 19.1869 17.2209 19.1869 17.2499V17.279V17.3081V17.3371V17.3662V17.3953C19.1869 17.4243 19.2159 17.4243 19.2159 17.4243V17.4825V17.5406V17.5988V17.6278V17.6569V17.686V17.715V17.7441C19.245 17.7441 19.245 17.7441 19.245 17.7732V17.8022V17.8313V17.8604C19.2741 17.8604 19.2741 17.8895 19.2741 17.8895V17.9185V17.9476L19.3031 17.9767V18.0348H19.3322V18.0639V18.0929C19.3613 18.0929 19.3613 18.0929 19.3613 18.122C19.3613 18.1511 19.3903 18.1511 19.3903 18.1511V18.1802C19.3903 18.1802 19.4194 18.1802 19.4194 18.2092C19.4485 18.2092 19.4485 18.2383 19.4485 18.2383L19.4776 18.2674C19.4776 18.2674 19.5066 18.2674 19.5066 18.2964H19.5357V18.3255C19.5648 18.3255 19.5648 18.3255 19.5938 18.3546C19.9717 18.2964 20.1752 17.9476 20.3787 17.6569C20.4078 17.5988 20.4369 17.5697 20.4659 17.5406C20.4659 17.5406 20.4659 17.5115 20.495 17.5115C20.495 17.4825 20.5241 17.4534 20.5241 17.4534C20.5531 17.4243 20.5531 17.3953 20.5822 17.3953C20.5822 17.3662 20.5822 17.3662 20.6113 17.3371C20.6113 17.3081 20.6403 17.3081 20.6403 17.279C20.6403 17.279 20.6694 17.279 20.6694 17.2499C20.6985 17.2209 20.7276 17.1627 20.7566 17.1046C20.7857 17.0755 20.8148 17.0464 20.8148 17.0174C20.8438 16.9883 20.8729 16.9592 20.8729 16.9302C21.1055 16.5522 21.309 16.1453 21.5415 15.6511C21.6869 15.3313 21.8613 14.7499 22.1229 14.6627C22.559 14.4883 23.2276 14.6046 23.838 14.6046C24.3322 14.6046 25.2334 14.4883 25.4078 14.8371C25.5241 15.1278 25.1462 15.8546 25.0299 16.0581C24.652 16.6395 24.2741 17.0755 23.8962 17.5697C23.8671 17.5988 23.8671 17.6278 23.838 17.6569C23.838 17.6569 23.809 17.6569 23.809 17.686C23.7799 17.686 23.7799 17.715 23.7508 17.7441C23.7508 17.7732 23.7217 17.7732 23.7217 17.8022L23.6636 17.8604L23.5764 17.9476C23.3729 18.2383 22.9659 18.6453 22.995 19.0813C23.0241 19.4011 23.3438 19.6336 23.5764 19.8662C24.1287 20.3895 24.5066 20.7383 24.9427 21.3197Z" fill="#0094FF" fill-opacity="0.6"/>
</g>
<rect x="0.5" y="0.5" width="35" height="35" rx="17.5" stroke="#0094FF" stroke-opacity="0.13"/>
<defs>
<clipPath id="clip0_289_115">
<rect width="15.39" height="15" fill="#0094FF" transform="matrix(1 0 0 -1 10.3 26)"/>
</clipPath>
</defs>
</svg>
