<svg width="14" height="9" viewBox="0 0 14 9" fill="none" xmlns="http://www.w3.org/2000/svg">
<path d="M13.4845 6.82172C13.6473 7.01165 13.9729 7.44575 13.9457 7.71707C13.8372 8.50389 11.9651 7.93413 11.3411 8.20544H11.2868C10.5814 8.06979 10.093 7.58141 9.68604 7.12017C9.44186 6.87599 9.08914 6.25196 8.68217 6.33335C8.08527 6.41475 8.38372 7.44575 8.1124 7.87986C7.92248 8.23258 7.05426 8.17831 6.45736 8.12405C4.58527 7.90699 3.63566 6.90312 2.79457 5.84498C2.71318 5.76358 2.65891 5.68219 2.60465 5.60079C2.57752 5.57366 2.55038 5.54653 2.55038 5.5194C2.49612 5.46513 2.44186 5.38374 2.41473 5.32948C2.38759 5.30234 2.36046 5.27521 2.36046 5.24808C2.3062 5.19382 2.27907 5.13955 2.2248 5.05816C2.19767 5.05816 2.19767 5.03103 2.17054 5.00389C2.11628 4.9225 2.06201 4.81397 2.00775 4.73258L1.84496 4.48839C1.81783 4.46126 1.79069 4.43413 1.79069 4.407C1.73643 4.35273 1.7093 4.27134 1.65504 4.21707C1.65504 4.18994 1.6279 4.16281 1.6279 4.13568C1.57364 4.08141 1.54651 4.00002 1.49224 3.94575C1.49224 3.91862 1.46511 3.89149 1.46511 3.86436C1.13953 3.32172 0.841082 2.75196 0.542632 2.15506C0.325578 1.72095 0.0542603 1.25971 0.0542603 0.717073C0.35271 0.472887 0.868214 0.554282 1.35659 0.554282C1.79069 0.554282 2.44186 0.472887 2.76744 0.635677C2.93023 0.717073 3.12015 1.23258 3.28294 1.53103C3.5 2.04653 3.74418 2.45351 3.98837 2.86048C4.0155 2.88762 4.04263 2.94188 4.06976 2.96901C4.06976 2.99614 4.06976 2.99614 4.0969 3.02327C4.0969 3.05041 4.12403 3.07754 4.15116 3.10467L4.17829 3.1318C4.20542 3.18606 4.20542 3.2132 4.23255 3.24033L4.25969 3.26746C4.28682 3.32172 4.31395 3.34886 4.34108 3.40312C4.531 3.64731 4.80232 4.13568 5.1279 4.08141C5.45349 4.02715 5.48062 3.24033 5.48062 2.75196V2.67056C5.50775 2.10079 5.48062 1.47676 5.31783 1.17831C5.18217 0.906995 4.88372 0.906995 4.6124 0.717073C4.85659 0.255833 5.48062 0.201569 6.26744 0.201569C6.9186 0.201569 7.84108 0.147305 8.08527 0.554282C8.35659 1.01552 8.16666 1.80234 8.16666 2.39924C8.13953 2.45351 8.13953 2.5349 8.13953 2.58917V2.6163V2.83335V2.88762V2.94188V2.96901V2.99614C8.13953 2.99614 8.1124 2.99614 8.1124 3.02327V3.05041V3.07754V3.10467V3.1318V3.15893C8.1124 3.18606 8.13953 3.18606 8.13953 3.18606V3.24033V3.29459V3.34886V3.37599V3.40312V3.43025V3.45738V3.48451C8.16666 3.48451 8.16666 3.48451 8.16666 3.51165V3.53878V3.56591V3.59304C8.1938 3.59304 8.1938 3.62017 8.1938 3.62017V3.64731V3.67444L8.22093 3.70157V3.75583H8.24806V3.78296V3.8101C8.27519 3.8101 8.27519 3.8101 8.27519 3.83723C8.27519 3.86436 8.30232 3.86436 8.30232 3.86436V3.89149C8.30232 3.89149 8.32945 3.89149 8.32945 3.91862C8.35659 3.91862 8.35659 3.94575 8.35659 3.94575L8.38372 3.97289C8.38372 3.97289 8.41085 3.97289 8.41085 4.00002H8.43798V4.02715C8.46511 4.02715 8.46511 4.02715 8.49224 4.05428C8.84496 4.00002 9.03488 3.67444 9.2248 3.40312C9.25194 3.34886 9.27907 3.32172 9.3062 3.29459C9.3062 3.29459 9.3062 3.26746 9.33333 3.26746C9.33333 3.24033 9.36046 3.2132 9.36046 3.2132C9.38759 3.18606 9.38759 3.15893 9.41473 3.15893C9.41473 3.1318 9.41473 3.1318 9.44186 3.10467C9.44186 3.07754 9.46899 3.07754 9.46899 3.05041C9.46899 3.05041 9.49612 3.05041 9.49612 3.02327C9.52325 2.99614 9.55038 2.94188 9.57752 2.88762C9.60465 2.86048 9.63178 2.83335 9.63178 2.80622C9.65891 2.77909 9.68604 2.75196 9.68604 2.72482C9.9031 2.37211 10.093 1.99227 10.3101 1.53103C10.4457 1.23258 10.6085 0.689941 10.8527 0.608546C11.2597 0.445755 11.8837 0.554282 12.4535 0.554282C12.9147 0.554282 13.7558 0.445755 13.9186 0.771337C14.0271 1.04265 13.6744 1.72095 13.5659 1.91087C13.2132 2.45351 12.8605 2.86048 12.5077 3.32172C12.4806 3.34886 12.4806 3.37599 12.4535 3.40312C12.4535 3.40312 12.4264 3.40312 12.4264 3.43025C12.3992 3.43025 12.3992 3.45738 12.3721 3.48451C12.3721 3.51165 12.345 3.51165 12.345 3.53878L12.2907 3.59304L12.2093 3.67444C12.0194 3.94575 11.6395 4.3256 11.6667 4.73258C11.6938 5.03103 11.9922 5.24808 12.2093 5.46513C12.7248 5.95351 13.0775 6.27909 13.4845 6.82172Z" fill="#505050"/>
</svg>
