<svg width="14" height="11" viewBox="0 0 14 11" fill="none" xmlns="http://www.w3.org/2000/svg">
<path d="M13.8101 2.61251C13.8101 2.61251 13.9457 3.72491 13.9457 4.83732V5.89545C13.9457 7.03499 13.8101 8.14739 13.8101 8.14739C13.8101 8.14739 13.6744 9.09701 13.2674 9.53111C12.7248 10.0737 12.1279 10.1009 11.8566 10.128C9.93023 10.2637 7 10.2637 7 10.2637C7 10.2637 3.39147 10.2365 2.27907 10.128C1.98062 10.0737 1.27519 10.0737 0.732555 9.53111C0.325578 9.09701 0.189919 8.14739 0.189919 8.14739C0.189919 8.14739 0.0542603 7.03499 0.0542603 5.89545V4.83732C0.0542603 3.72491 0.189919 2.61251 0.189919 2.61251C0.189919 2.61251 0.325578 1.63577 0.732555 1.22879C1.27519 0.65902 1.87209 0.65902 2.14341 0.631889C4.06976 0.49623 7 0.49623 7 0.49623C7 0.49623 9.93023 0.49623 11.8566 0.631889C12.1279 0.65902 12.7248 0.65902 13.2674 1.22879C13.6744 1.63577 13.8101 2.61251 13.8101 2.61251ZM8.87209 5.48848L9.33333 5.24429L5.58914 3.2908V7.19778L8.87209 5.48848Z" fill="#505050"/>
</svg>
