<svg width="36" height="36" viewBox="0 0 36 36" fill="none" xmlns="http://www.w3.org/2000/svg">
<path d="M23.8372 15.6279C23.8372 15.6279 23.9535 16.5814 23.9535 17.5349V18.4418C23.9535 19.4186 23.8372 20.3721 23.8372 20.3721C23.8372 20.3721 23.7209 21.186 23.3721 21.5581C22.907 22.0232 22.3953 22.0465 22.1628 22.0698C20.5116 22.186 18 22.186 18 22.186C18 22.186 14.907 22.1628 13.9535 22.0698C13.6977 22.0232 13.093 22.0232 12.6279 21.5581C12.2791 21.186 12.1628 20.3721 12.1628 20.3721C12.1628 20.3721 12.0465 19.4186 12.0465 18.4418V17.5349C12.0465 16.5814 12.1628 15.6279 12.1628 15.6279C12.1628 15.6279 12.2791 14.7907 12.6279 14.4418C13.093 13.9535 13.6046 13.9535 13.8372 13.9302C15.4884 13.8139 18 13.8139 18 13.8139C18 13.8139 20.5116 13.8139 22.1628 13.9302C22.3953 13.9535 22.907 13.9535 23.3721 14.4418C23.7209 14.7907 23.8372 15.6279 23.8372 15.6279ZM19.6046 18.093L20 17.8837L16.7907 16.2093V19.5581L19.6046 18.093Z" fill="#F80505" fill-opacity="0.6"/>
<rect x="0.5" y="0.5" width="35" height="35" rx="17.5" stroke="#F80505" stroke-opacity="0.13"/>
</svg>
